<svg width="246" height="226" viewBox="0 0 246 226" fill="none" xmlns="http://www.w3.org/2000/svg">
<path d="M151.992 -4.24422C164.669 -10.1904 181.039 -6.36088 189.92 4.62998C195.502 11.5326 198.122 20.5126 203.524 27.5642C210.083 36.1248 220.052 41.0244 228.737 47.296C237.422 53.5675 245.593 62.7827 245.18 73.6521C244.797 83.7414 236.701 92.3099 227.331 95.4652C217.96 98.6206 207.666 97.2565 198.214 94.3755C168.596 85.3602 97.9047 21.128 151.992 -4.24422Z" fill="url(#paint0_linear_114_30)"/>
<path d="M89.2573 -4.45225C63.2245 5.3842 41.1433 25.2591 28.6437 50.1066C16.1441 74.9541 13.2999 104.53 20.8728 131.3C31.958 170.405 66.0959 202.222 106.039 209.774C145.981 217.326 189.767 199.895 212.944 166.497C226.015 147.659 232.604 124.082 229.558 101.356C227.433 85.521 220.47 70.2768 209.703 58.4357C198.637 46.28 176.486 41.4861 169.66 26.4789C162.576 10.9085 167.118 1.52266 147.512 -6.15381C128.808 -13.4806 107.741 -11.4372 89.2573 -4.45225Z" fill="#2C2276"/>
<path d="M174.749 146.712C168.222 159.851 173.505 177.218 185.676 185.539C207.541 200.499 255.748 178.783 237.381 150.358C224.854 130.971 186.578 122.903 174.749 146.712Z" fill="url(#paint1_linear_114_30)"/>
<path d="M24.9131 29.488C22.0859 37.4554 21.575 47.723 27.9669 53.1186C33.6251 57.8841 42.0491 56.5687 48.8789 53.8551C60.3777 49.2579 70.4392 41.5383 77.9844 31.5241C82.01 26.1639 85.3289 20.0003 86.0741 13.2774C88.0639 -4.71345 72.4529 -10.3769 58.3515 -5.20183C43.2245 0.343497 30.3523 14.1714 24.9131 29.488Z" fill="url(#paint2_linear_114_30)"/>
<path d="M45.5111 148.148C43.7802 143.271 38.2868 140.338 33.1686 140.83C28.0503 141.322 23.5063 144.767 20.8104 149.176C14.5357 159.411 19.0366 174.729 29.8436 179.882C40.6506 185.035 55.2397 178.835 59.1468 167.446C63.0539 156.057 55.3061 142.125 43.6435 139.495" fill="url(#paint3_linear_114_30)"/>
<path d="M57.8105 66.2299C56.0277 66.2342 54.254 65.9696 52.5468 65.4446C44.3572 62.9199 38.5821 53.7044 39.0897 44.0059C39.5318 35.7602 44.1188 27.3928 51.674 21.0515C58.0566 15.6958 71.829 7.23021 82.9331 9.4801C87.77 10.4578 91.4881 13.3713 93.9834 18.1184C97.0901 24.0474 96.894 31.8808 93.449 39.0781C90.25 45.7532 84.8825 51.0343 80.0533 55.3064C71.8021 62.6175 64.4661 66.2299 57.8105 66.2299ZM52.5968 22.1745C45.353 28.2606 40.9544 36.2393 40.5354 44.0766C40.0471 53.1075 45.3915 61.6987 52.9621 64.0311C60.5327 66.3634 69.03 63.1319 79.1075 54.2148C83.829 50.037 89.0696 44.9011 92.1533 38.4499C95.3945 31.6767 95.6136 24.3419 92.7107 18.8173C90.4307 14.4628 87.0434 11.8046 82.6486 10.9133C72.0636 8.76941 58.7641 16.9837 52.5776 22.1784L52.5968 22.1745Z" fill="white"/>
<path d="M7.88729 134.528C-2.73948 106.927 -1.75204 74.4316 10.5241 47.6032L11.7394 48.2198C-0.373947 74.6942 -1.34332 106.76 9.14238 133.995L7.88729 134.528Z" fill="white"/>
<path d="M119.794 225.178C117.437 225.178 115.082 225.096 112.728 224.932C86.2961 223.004 61.6597 211.158 43.9961 191.882L41.5422 189.167L48.6044 192.58L47.9588 193.851L47.7566 193.756C64.9756 211.121 88.1341 221.712 112.833 223.517C138.902 225.261 164.649 217.071 184.652 200.671L185.589 201.752C167.155 216.85 143.864 225.142 119.794 225.178Z" fill="white"/>
<mask id="mask0_114_30" style="mask-type:alpha" maskUnits="userSpaceOnUse" x="59" y="45" width="120" height="120">
<rect x="59" y="45" width="120" height="120" rx="60" fill="#00C8C8"/>
</mask>
<g mask="url(#mask0_114_30)">
<path d="M50.3323 85.0222C45.9013 97.8711 45.1005 118.527 55.1186 127.228C63.9868 134.913 77.1898 132.792 87.8942 128.416C105.916 121.002 121.686 108.553 133.511 92.4033C139.821 83.7591 145.023 73.8192 146.191 62.9773C149.309 33.9642 126.609 21.5012 102.741 29.0792C78.8726 36.6571 58.8574 60.3217 50.3323 85.0222Z" fill="url(#paint4_linear_114_30)"/>
<path d="M70.8077 131.845C65.1469 131.96 59.7621 130.59 55.4465 126.851C50.5863 122.629 48.3009 115.453 47.806 107.649C47.3122 99.86 48.6101 91.55 50.805 85.1852C59.2939 60.5896 79.2144 37.0731 102.892 29.5557C114.715 25.8021 126.187 27.0306 134.299 32.7161C142.392 38.3879 147.237 48.5633 145.694 62.9239C144.539 73.6431 139.391 83.4993 133.108 92.1079C121.335 108.185 105.639 120.575 87.705 127.953C82.3877 130.127 76.4736 131.73 70.8077 131.845Z" stroke="white" stroke-opacity="0.05"/>
<path d="M145.636 186.322C156.43 182.044 170.253 171.042 170.299 159.649C170.328 149.573 161.587 142.141 152.78 137.597C137.923 129.972 121.062 126.627 104.005 127.92C94.8858 128.626 85.5461 130.777 77.8731 136.065C57.3435 150.218 61.9384 171.986 80.1638 183.335C98.3891 194.683 124.883 194.541 145.636 186.322Z" fill="url(#paint5_linear_114_30)" fill-opacity="0.68"/>
<path d="M164.481 146.882C167.706 150.504 169.813 154.766 169.8 159.647C169.778 165.146 166.422 170.623 161.65 175.295C156.888 179.956 150.791 183.741 145.453 185.856C124.803 194.034 98.4834 194.152 80.427 182.909C71.4129 177.296 65.8237 169.141 64.9819 160.701C64.1426 152.286 68.0123 143.47 78.1554 136.478C85.7265 131.261 94.967 129.122 104.042 128.42C121.01 127.133 137.779 130.461 152.552 138.042C156.922 140.297 161.252 143.257 164.481 146.882Z" stroke="white" stroke-opacity="0.05"/>
<path d="M207.444 45.0431C199.846 36.2389 184.922 26.7945 174.2 30.5286C164.721 33.8416 160.633 44.5838 159.282 54.4309C157.042 71.0295 159.488 88.1073 166.358 103.833C170.045 112.235 175.163 120.367 182.676 125.881C202.784 140.632 221.719 129.063 226.342 108.04C230.966 87.0175 222.049 61.9733 207.444 45.0431Z" fill="url(#paint6_linear_114_30)" fill-opacity="0.68"/>
<path d="M164.131 40.2714C166.465 36.0161 169.772 32.6067 174.364 31.0017C179.539 29.1994 185.8 30.5617 191.772 33.5325C197.731 36.4964 203.309 41.0164 207.067 45.3704C221.598 62.2158 230.435 87.1036 225.855 107.932C223.568 118.33 217.757 126.327 210.103 129.922C202.472 133.507 192.905 132.765 182.97 125.477C175.557 120.036 170.484 111.994 166.815 103.632C159.981 87.989 157.549 71.0046 159.777 54.5C160.447 49.6137 161.794 44.531 164.131 40.2714Z" stroke="white" stroke-opacity="0.05"/>
</g>
<defs>
<linearGradient id="paint0_linear_114_30" x1="188.694" y1="-7.03528" x2="208.562" y2="92.9283" gradientUnits="userSpaceOnUse">
<stop stop-color="#02BBB7"/>
<stop offset="1" stop-color="#005C92"/>
</linearGradient>
<linearGradient id="paint1_linear_114_30" x1="206.7" y1="132.045" x2="206.7" y2="190.408" gradientUnits="userSpaceOnUse">
<stop stop-color="#BFCFCC"/>
<stop offset="1" stop-color="#BFCFCC" stop-opacity="0"/>
</linearGradient>
<linearGradient id="paint2_linear_114_30" x1="54.581" y1="-7.03528" x2="54.581" y2="56.2957" gradientUnits="userSpaceOnUse">
<stop stop-color="#A5B4B4"/>
<stop offset="1" stop-color="#A5B4B4" stop-opacity="0"/>
</linearGradient>
<linearGradient id="paint3_linear_114_30" x1="39.0587" y1="139.495" x2="39.0587" y2="181.716" gradientUnits="userSpaceOnUse">
<stop stop-color="white"/>
<stop offset="1" stop-color="white" stop-opacity="0"/>
</linearGradient>
<linearGradient id="paint4_linear_114_30" x1="97.7778" y1="29.9102" x2="97.7778" y2="132.042" gradientUnits="userSpaceOnUse">
<stop stop-color="#A5B4B4"/>
<stop offset="0.0001" stop-color="white"/>
<stop offset="1" stop-color="#A5B4B4" stop-opacity="0"/>
</linearGradient>
<linearGradient id="paint5_linear_114_30" x1="83.4711" y1="186.11" x2="149.829" y2="129.375" gradientUnits="userSpaceOnUse">
<stop stop-color="#A5B4B4"/>
<stop offset="0.0001" stop-color="white"/>
<stop offset="1" stop-color="#A5B4B4" stop-opacity="0"/>
</linearGradient>
<linearGradient id="paint6_linear_114_30" x1="227.854" y1="103.988" x2="152.224" y2="60.4901" gradientUnits="userSpaceOnUse">
<stop stop-color="#A5B4B4"/>
<stop offset="0.0001" stop-color="white"/>
<stop offset="1" stop-color="#A5B4B4" stop-opacity="0"/>
</linearGradient>
</defs>
</svg>
