<svg width="181" height="51" viewBox="0 0 181 51" fill="none" xmlns="http://www.w3.org/2000/svg">
<path d="M173.935 22.9688C171.295 21.8878 170.089 20.8492 170.089 19.3192C170.089 18.2761 171.098 17.0365 172.956 17.0365C174.743 17.0365 177.225 18.667 177.486 18.8233C177.877 19.0847 178.366 18.8233 178.627 18.4325L179.865 16.5742C179.973 16.4031 180.012 16.1977 179.976 15.9987C179.94 15.7996 179.83 15.6216 179.668 15.4998C179.018 15.0107 176.476 13.3154 173.151 13.3154C167.971 13.3154 165.82 16.6657 165.82 19.5693C165.82 23.4155 168.882 25.3766 171.947 26.6095C174.683 27.7262 176.086 28.8586 176.086 30.5204C176.086 31.9208 174.815 33.0287 173.119 33.0287C171 33.0287 168.362 31.1056 168.206 31.0185C168.12 30.9525 168.022 30.9057 167.917 30.8811C167.811 30.8565 167.702 30.8547 167.596 30.8759C167.491 30.8971 167.391 30.9407 167.303 31.0038C167.215 31.0669 167.142 31.1481 167.089 31.2418L165.914 33.252C165.621 33.7747 165.785 33.9377 166.077 34.2303C166.729 34.849 169.142 36.7721 173.247 36.7721C177.841 36.7721 180.743 33.6764 180.743 30.3194C180.745 26.1315 177.095 24.2397 173.935 22.9688Z" fill="#2A276E"/>
<path d="M159.917 13.6494H156.276V35.8419C156.281 36.0044 156.348 36.1588 156.463 36.2738C156.578 36.3887 156.732 36.4555 156.895 36.4606H160.545V14.2681C160.539 14.1041 160.471 13.9484 160.355 13.8332C160.238 13.718 160.081 13.6522 159.917 13.6494Z" fill="#2A276E"/>
<path d="M146.293 27.2492C149.127 26.1101 151.115 23.6755 151.115 20.6669C151.101 18.7962 150.345 17.0074 149.014 15.6935C147.682 14.3797 145.883 13.6484 144.012 13.6603H134.068V35.8528C134.068 35.9342 134.084 36.0148 134.116 36.09C134.147 36.1653 134.193 36.2336 134.25 36.291C134.308 36.3485 134.377 36.394 134.452 36.425C134.527 36.456 134.608 36.4717 134.689 36.4715H138.305V27.5373H141.924L146.257 36.1722C146.307 36.2655 146.383 36.3426 146.476 36.3945C146.568 36.4463 146.674 36.4707 146.779 36.4648H151.258L146.293 27.2492ZM143.652 24.0552H138.339V17.5779H143.65C145.377 17.5779 146.875 19.0119 146.875 20.7384C146.875 22.5453 145.377 24.044 143.65 24.044L143.652 24.0552Z" fill="#2A276E"/>
<path d="M104.878 13.6821C104.837 13.5704 104.761 13.4751 104.661 13.4102C104.561 13.3454 104.443 13.3147 104.325 13.3225H103.998C103.881 13.3197 103.765 13.3525 103.666 13.4167C103.567 13.4808 103.49 13.5733 103.445 13.6821L92.9246 36.4642H96.7082C96.9139 36.4687 97.1159 36.4084 97.2855 36.2917C97.4551 36.1751 97.5836 36.008 97.653 35.8142L99.2499 32.2942H108.993L110.59 35.8142C110.813 36.261 111.036 36.4642 111.534 36.4642H115.311L104.878 13.6821ZM100.838 28.6714L104.032 21.5017H104.13L107.389 28.6714H100.838Z" fill="#2A276E"/>
<path d="M129.255 13.6494H114.395V16.9417C114.395 17.0237 114.411 17.1051 114.443 17.1809C114.474 17.2566 114.521 17.3254 114.579 17.383C114.638 17.4406 114.707 17.486 114.783 17.5165C114.859 17.5469 114.941 17.5618 115.023 17.5603H120.008V35.8419C120.014 36.0046 120.081 36.159 120.196 36.2739C120.312 36.3888 120.466 36.4556 120.629 36.4606H124.27V17.5603H129.874V14.2681C129.874 14.104 129.809 13.9467 129.693 13.8306C129.577 13.7146 129.419 13.6494 129.255 13.6494Z" fill="#2A276E"/>
<path d="M89.0803 13.6494H85.4307V35.8419C85.4358 36.0044 85.5026 36.1588 85.6175 36.2738C85.7325 36.3887 85.8869 36.4555 86.0494 36.4606H89.699V14.2681C89.694 14.1056 89.6272 13.9512 89.5122 13.8362C89.3973 13.7213 89.2428 13.6545 89.0803 13.6494Z" fill="#2A276E"/>
<path d="M77.1063 13.5381C76.9889 13.5374 76.8739 13.5711 76.7755 13.635C76.677 13.6989 76.5995 13.7902 76.5523 13.8977L70.2984 27.911H70.0751L63.8212 13.8977C63.7745 13.7899 63.6971 13.6982 63.5985 13.6342C63.5 13.5703 63.3847 13.5368 63.2672 13.5381H58.9922L69.4497 36.3202C69.4946 36.4293 69.5716 36.5222 69.6705 36.5864C69.7695 36.6507 69.8857 36.6833 70.0036 36.6798H70.3297C70.4475 36.6826 70.5634 36.6498 70.6622 36.5856C70.7611 36.5215 70.8382 36.429 70.8836 36.3202L81.3813 13.5381H77.1063Z" fill="#2A276E"/>
<path d="M35.1896 35.6178C17.864 49.0794 0.679163 25.9488 3.28571 13.001C3.28859 12.9861 3.2862 12.9708 3.27895 12.9575C3.27169 12.9443 3.26003 12.9339 3.24598 12.9284C3.23194 12.9228 3.21639 12.9223 3.20202 12.927C3.18766 12.9317 3.17539 12.9413 3.16733 12.9541C-0.00293162 18.6681 -0.831903 25.3895 0.855008 31.7026C2.54192 38.0157 6.61304 43.4278 12.2109 46.7989C12.5415 46.9934 12.8979 47.14 13.2696 47.2344C16.5596 48.0676 27.6112 49.4434 35.2834 35.6982C35.2912 35.6855 35.2943 35.6705 35.292 35.6557C35.2897 35.641 35.2822 35.6276 35.2709 35.6179C35.2596 35.6082 35.2452 35.6029 35.2303 35.6029C35.2154 35.6028 35.2009 35.6081 35.1896 35.6178Z" fill="#703E97"/>
<path d="M29.2234 11.3365C49.5486 19.6163 38.104 46.0592 25.5872 50.2739C25.5732 50.2793 25.5616 50.2895 25.5543 50.3025C25.547 50.3156 25.5444 50.3308 25.547 50.3456C25.5497 50.3603 25.5573 50.3737 25.5687 50.3834C25.5801 50.3932 25.5945 50.3986 25.6095 50.3989C32.1441 50.2895 38.3811 47.6475 43.0059 43.0297C47.6308 38.4119 50.2823 32.179 50.4018 25.6446C50.4054 25.2617 50.3534 24.8803 50.2477 24.5122C49.3253 21.2468 44.9922 10.9859 29.2524 11.2137C29.2378 11.2136 29.2235 11.2185 29.212 11.2276C29.2005 11.2366 29.1924 11.2493 29.189 11.2636C29.1857 11.2778 29.1872 11.2928 29.1935 11.3061C29.1997 11.3193 29.2103 11.3301 29.2234 11.3365Z" fill="#F1CB14"/>
<path d="M11.1788 28.6404C8.18585 6.89908 36.8064 3.58897 46.7167 12.3199C46.7273 12.3326 46.7426 12.3406 46.7592 12.3421C46.7757 12.3435 46.7921 12.3384 46.8049 12.3277C46.8176 12.317 46.8256 12.3018 46.8271 12.2852C46.8285 12.2687 46.8234 12.2522 46.8127 12.2395C43.4498 6.63724 38.0438 2.55893 31.7334 0.863648C25.4231 -0.831632 18.7011 -0.0115296 12.9835 3.1512C12.6534 3.3397 12.3524 3.5752 12.0901 3.8503C9.71136 6.28262 2.99287 15.1654 11.0604 28.6828C11.0684 28.6949 11.0802 28.7039 11.094 28.7084C11.1077 28.713 11.1226 28.7128 11.1362 28.7079C11.1498 28.703 11.1614 28.6937 11.1692 28.6815C11.1769 28.6692 11.1803 28.6548 11.1788 28.6404Z" fill="#2A276E"/>
<path d="M35.7597 20.2665C35.7396 20.2218 35.715 20.1793 35.6949 20.1347C35.5497 19.8354 35.3956 19.5428 35.2259 19.2591C35.1968 19.2078 35.1656 19.1586 35.1343 19.1095C34.0926 17.4083 32.6317 16.003 30.8914 15.028C29.1512 14.053 27.1898 13.541 25.195 13.541C23.2003 13.541 21.2389 14.053 19.4986 15.028C17.7583 16.003 16.2975 17.4083 15.2558 19.1095L15.162 19.2591C14.9944 19.5428 14.8403 19.8354 14.6952 20.1347C14.675 20.1793 14.6505 20.2218 14.6304 20.2665C13.9228 21.7847 13.5503 23.4374 13.5384 25.1124C13.5264 26.7874 13.8753 28.4453 14.5611 29.9734C14.5835 30.0248 14.6058 30.0784 14.6304 30.1298C14.7689 30.4268 14.9207 30.715 15.0771 30.9986L15.1553 31.1393C16.1871 32.881 17.6546 34.3239 19.4134 35.3262C21.1723 36.3285 23.1617 36.8556 25.1861 36.8556C27.2105 36.8556 29.1999 36.3285 30.9587 35.3262C32.7176 34.3239 34.1851 32.881 35.2169 31.1393C35.246 31.0924 35.2705 31.0455 35.2973 30.9986C35.4582 30.715 35.6123 30.4268 35.744 30.1298C35.7686 30.0784 35.7887 30.0248 35.8133 29.9734C36.4992 28.4453 36.848 26.7874 36.836 25.1124C36.8241 23.4374 36.4517 21.7847 35.744 20.2665H35.7597ZM34.6273 20.2665C35.3205 21.5915 35.7248 23.0486 35.8133 24.5414H31.2457C31.2083 23.1011 31.022 21.6684 30.6895 20.2665L30.656 20.1347H34.5536C34.5781 20.1793 34.6161 20.2218 34.6273 20.2665ZM30.2205 25.7007C30.1979 27.1391 30.0243 28.5713 29.7023 29.9734H25.6998V25.7029V25.5689H30.2227C30.2227 25.6113 30.2227 25.656 30.2205 25.7007ZM20.6989 29.9734C20.374 28.5716 20.1973 27.1394 20.1718 25.7007C20.1718 25.656 20.1718 25.6113 20.1718 25.5666H24.6947V25.7007V29.9734H20.6989ZM20.7346 20.2665L20.7681 20.1347H24.6925V24.5414H20.1763C20.2111 23.1007 20.3983 21.6678 20.7346 20.2665ZM29.6219 20.1347C29.6331 20.1793 29.6465 20.2218 29.6576 20.2665C29.9929 21.668 30.1801 23.1008 30.216 24.5414H25.6998V20.1347H29.6219ZM33.9215 19.1095H30.3724C29.8386 17.4366 29.0926 16.0406 28.2036 15.0668C28.1971 15.0599 28.1931 15.051 28.1922 15.0415C28.1914 15.0321 28.1937 15.0226 28.1988 15.0147C28.204 15.0067 28.2116 15.0007 28.2206 14.9976C28.2296 14.9945 28.2393 14.9944 28.2483 14.9975C30.5484 15.6903 32.5473 17.1392 33.9215 19.1095ZM25.7668 14.6022C27.2454 14.964 28.5185 16.6571 29.3248 19.1095H25.6998V14.6558C25.6995 14.6475 25.7012 14.6392 25.7047 14.6316C25.7082 14.6241 25.7134 14.6174 25.7199 14.6122C25.7264 14.607 25.734 14.6034 25.7422 14.6017C25.7503 14.5999 25.7588 14.6001 25.7668 14.6022ZM24.6925 14.6558V19.1095H21.0674C21.8738 16.6526 23.1536 14.9551 24.6255 14.6022C24.6335 14.6001 24.642 14.5999 24.6501 14.6017C24.6583 14.6034 24.6659 14.607 24.6724 14.6122C24.6789 14.6174 24.6841 14.6241 24.6876 14.6316C24.6911 14.6392 24.6927 14.6475 24.6925 14.6558ZM22.1976 15.0668C21.3042 16.0406 20.5649 17.4366 20.0288 19.1095H16.4708C17.8473 17.1366 19.8507 15.6874 22.1552 14.9975C22.164 14.9952 22.1733 14.9958 22.1817 14.9992C22.1902 15.0026 22.1973 15.0087 22.2021 15.0164C22.2068 15.0242 22.209 15.0333 22.2082 15.0423C22.2074 15.0514 22.2037 15.06 22.1976 15.0668ZM15.7628 20.2665L15.8387 20.1347H19.7363L19.7028 20.2665C19.3681 21.668 19.1817 23.1009 19.1466 24.5414H14.5768C14.6664 23.0488 15.0705 21.5919 15.7628 20.2665ZM14.5656 25.7007C14.5656 25.656 14.5656 25.6113 14.5656 25.5666H19.1399V25.7007C19.1671 27.1393 19.3438 28.5713 19.667 29.9734H15.6868C15.0165 28.644 14.6344 27.188 14.5656 25.7007ZM16.2743 31.0009H19.9395L19.9797 31.1416C20.518 32.8815 21.2841 34.3311 22.1999 35.3339C22.2064 35.3408 22.2104 35.3497 22.2112 35.3592C22.2121 35.3686 22.2098 35.3781 22.2046 35.386C22.1995 35.394 22.1918 35.4 22.1829 35.4031C22.1739 35.4062 22.1641 35.4062 22.1552 35.4032C19.7356 34.6781 17.6517 33.1181 16.2743 31.0009ZM24.6925 31.1393V35.736C24.6923 35.7441 24.6904 35.7522 24.6867 35.7595C24.6831 35.7669 24.6779 35.7733 24.6715 35.7785C24.6651 35.7836 24.6577 35.7872 24.6497 35.7891C24.6418 35.7911 24.6335 35.7912 24.6255 35.7896C23.0955 35.4233 21.7732 33.6007 20.9736 30.9942H24.6925V31.1393ZM25.7668 35.7963C25.7588 35.7979 25.7505 35.7978 25.7425 35.7958C25.7346 35.7939 25.7271 35.7903 25.7208 35.7852C25.7144 35.78 25.7092 35.7736 25.7056 35.7662C25.7019 35.7589 25.7 35.7508 25.6998 35.7427V30.9986H29.4187C28.619 33.6074 27.2968 35.43 25.7668 35.7963ZM34.118 31.0009C32.74 33.118 30.6551 34.6773 28.2349 35.4009C28.2261 35.4032 28.2168 35.4026 28.2083 35.3992C28.1999 35.3958 28.1928 35.3898 28.188 35.382C28.1832 35.3743 28.1811 35.3652 28.1819 35.3561C28.1827 35.3471 28.1864 35.3385 28.1924 35.3317C29.1082 34.3288 29.8743 32.8748 30.4126 31.1393L30.4528 30.9986H34.118V31.0009ZM35.8267 25.7007C35.7593 27.1876 35.3787 28.6436 34.7099 29.9734H30.7253C31.0473 28.5711 31.224 27.1392 31.2524 25.7007V25.5666H35.8289C35.8267 25.6113 35.8289 25.656 35.8267 25.7007Z" fill="#2A276E"/>
</svg>
