<svg width="647" height="259" viewBox="0 0 647 259" fill="none" xmlns="http://www.w3.org/2000/svg">
<path d="M50.6943 121.902L50.6943 118.182C50.6943 117.446 50.7261 116.898 50.7896 116.538C50.8488 116.174 50.9757 115.85 51.1704 115.567C51.3651 115.279 51.6253 115.04 51.9512 114.85C52.2728 114.659 52.6346 114.564 53.0366 114.564C53.4725 114.564 53.8724 114.682 54.2363 114.919C54.6003 115.152 54.8732 115.47 55.0552 115.872C55.2202 115.305 55.5016 114.869 55.8994 114.564C56.2972 114.259 56.7648 114.107 57.3022 114.107C57.7254 114.107 58.138 114.206 58.54 114.405C58.9378 114.6 59.2573 114.869 59.4985 115.211C59.7355 115.55 59.8815 115.969 59.9365 116.468C59.9704 116.781 59.9915 117.537 60 118.734L60 121.902L50.6943 121.902ZM52.2432 120.023L54.395 120.023L54.395 118.792C54.395 118.059 54.3844 117.604 54.3633 117.427C54.3252 117.105 54.2152 116.853 54.0332 116.671C53.847 116.485 53.6037 116.392 53.3032 116.392C53.0155 116.392 52.7827 116.472 52.605 116.633C52.423 116.79 52.313 117.025 52.2749 117.338C52.2537 117.524 52.2432 118.059 52.2432 118.944L52.2432 120.023ZM55.9438 120.023L58.4321 120.023L58.4321 118.284C58.4321 117.607 58.4131 117.177 58.375 116.995C58.3242 116.716 58.2015 116.489 58.0068 116.316C57.8079 116.138 57.5435 116.049 57.2134 116.049C56.9341 116.049 56.6971 116.117 56.5024 116.252C56.3078 116.388 56.166 116.585 56.0771 116.843C55.9883 117.097 55.9438 117.651 55.9438 118.506L55.9438 120.023ZM50.6943 112.418L50.6943 106.115L52.2559 106.115L52.2559 110.54L60 110.54L60 112.418L50.6943 112.418ZM50.6943 104.719L50.6943 98.2886L58.4385 98.2886L58.4385 97.4697L62.0312 97.4697L62.0312 99.0312L60 99.0312L60 104.89L62.0312 104.89L62.0312 106.452L58.4385 106.452L58.4385 105.665C57.6429 105.279 56.7204 105.026 55.6709 104.903C54.6172 104.78 53.2863 104.719 51.6782 104.719L50.6943 104.719ZM52.2559 102.929C55.0827 102.929 57.1436 103.185 58.4385 103.697L58.4385 100.161L52.2559 100.161L52.2559 102.929Z" fill="#2C2276"/>
<path d="M403.38 197.694H407.1C407.836 197.694 408.384 197.726 408.744 197.79C409.108 197.849 409.432 197.976 409.715 198.17C410.003 198.365 410.242 198.625 410.433 198.951C410.623 199.273 410.718 199.635 410.718 200.037C410.718 200.472 410.6 200.872 410.363 201.236C410.13 201.6 409.813 201.873 409.411 202.055C409.978 202.22 410.414 202.502 410.718 202.899C411.023 203.297 411.175 203.765 411.175 204.302C411.175 204.725 411.076 205.138 410.877 205.54C410.682 205.938 410.414 206.257 410.071 206.499C409.732 206.736 409.313 206.882 408.814 206.937C408.501 206.97 407.745 206.992 406.548 207H403.38V197.694ZM405.259 199.243V201.395H406.491C407.223 201.395 407.678 201.384 407.855 201.363C408.177 201.325 408.429 201.215 408.611 201.033C408.797 200.847 408.89 200.604 408.89 200.303C408.89 200.015 408.81 199.783 408.649 199.605C408.492 199.423 408.257 199.313 407.944 199.275C407.758 199.254 407.223 199.243 406.338 199.243H405.259ZM405.259 202.944V205.432H406.999C407.676 205.432 408.105 205.413 408.287 205.375C408.566 205.324 408.793 205.201 408.966 205.007C409.144 204.808 409.233 204.543 409.233 204.213C409.233 203.934 409.165 203.697 409.03 203.502C408.894 203.308 408.698 203.166 408.439 203.077C408.186 202.988 407.631 202.944 406.776 202.944H405.259ZM412.864 197.694H419.167V199.256H414.743V207H412.864V197.694ZM420.563 197.694H426.994V205.438H427.812V209.031H426.251V207H420.392V209.031H418.831V205.438H419.618C420.003 204.643 420.257 203.72 420.379 202.671C420.502 201.617 420.563 200.286 420.563 198.678V197.694ZM422.354 199.256C422.354 202.083 422.097 204.144 421.585 205.438H425.121V199.256H422.354ZM432.478 200.259H434.281V201.871C434.281 202.239 434.312 202.514 434.376 202.696C434.444 202.874 434.583 203.028 434.795 203.16C435.011 203.287 435.282 203.35 435.607 203.35C435.925 203.35 436.28 203.278 436.674 203.134V200.259H438.458V207H436.674V204.309C435.98 204.495 435.451 204.588 435.087 204.588C434.541 204.588 434.05 204.472 433.614 204.239C433.178 204.002 432.88 203.701 432.719 203.337C432.558 202.969 432.478 202.48 432.478 201.871V200.259ZM444.145 204.854L445.922 205.153C445.694 205.805 445.332 206.302 444.837 206.645C444.346 206.983 443.73 207.152 442.99 207.152C441.818 207.152 440.95 206.769 440.387 206.003C439.943 205.39 439.721 204.615 439.721 203.68C439.721 202.563 440.013 201.689 440.597 201.059C441.181 200.424 441.919 200.106 442.812 200.106C443.815 200.106 444.606 200.439 445.186 201.103C445.766 201.763 446.043 202.777 446.018 204.144H441.549C441.562 204.673 441.705 205.085 441.98 205.381C442.256 205.673 442.598 205.819 443.009 205.819C443.288 205.819 443.523 205.743 443.713 205.591C443.904 205.438 444.048 205.193 444.145 204.854ZM444.247 203.052C444.234 202.535 444.101 202.144 443.847 201.877C443.593 201.607 443.284 201.471 442.92 201.471C442.531 201.471 442.209 201.613 441.955 201.896C441.701 202.18 441.576 202.565 441.581 203.052H444.247ZM447.427 200.259H449.09V201.249C449.306 200.91 449.598 200.635 449.966 200.424C450.334 200.212 450.742 200.106 451.191 200.106C451.974 200.106 452.638 200.413 453.184 201.027C453.73 201.64 454.003 202.495 454.003 203.591C454.003 204.717 453.728 205.593 453.178 206.219C452.628 206.841 451.961 207.152 451.178 207.152C450.806 207.152 450.467 207.078 450.163 206.93C449.862 206.782 449.545 206.528 449.21 206.168V209.564H447.427V200.259ZM449.191 203.515C449.191 204.273 449.342 204.833 449.642 205.197C449.943 205.557 450.309 205.737 450.74 205.737C451.155 205.737 451.5 205.572 451.775 205.242C452.05 204.907 452.188 204.361 452.188 203.604C452.188 202.897 452.046 202.373 451.762 202.03C451.479 201.687 451.127 201.516 450.708 201.516C450.273 201.516 449.911 201.685 449.623 202.023C449.335 202.358 449.191 202.855 449.191 203.515ZM459.329 204.854L461.106 205.153C460.877 205.805 460.516 206.302 460.021 206.645C459.53 206.983 458.914 207.152 458.173 207.152C457.001 207.152 456.134 206.769 455.571 206.003C455.126 205.39 454.904 204.615 454.904 203.68C454.904 202.563 455.196 201.689 455.78 201.059C456.364 200.424 457.103 200.106 457.996 200.106C458.999 200.106 459.79 200.439 460.37 201.103C460.949 201.763 461.227 202.777 461.201 204.144H456.732C456.745 204.673 456.889 205.085 457.164 205.381C457.439 205.673 457.782 205.819 458.192 205.819C458.472 205.819 458.707 205.743 458.897 205.591C459.087 205.438 459.231 205.193 459.329 204.854ZM459.43 203.052C459.417 202.535 459.284 202.144 459.03 201.877C458.776 201.607 458.467 201.471 458.104 201.471C457.714 201.471 457.393 201.613 457.139 201.896C456.885 202.18 456.76 202.565 456.764 203.052H459.43ZM464.477 204.232V203.071C464.785 203.071 465.01 203.052 465.149 203.014C465.289 202.971 465.42 202.874 465.543 202.722C465.67 202.565 465.733 202.387 465.733 202.188C465.733 201.977 465.655 201.782 465.499 201.604C465.346 201.423 465.116 201.332 464.807 201.332C464.57 201.332 464.358 201.382 464.172 201.484C463.986 201.585 463.816 201.827 463.664 202.208L462.153 201.884C462.306 201.291 462.632 200.847 463.131 200.551C463.63 200.255 464.199 200.106 464.838 200.106C465.651 200.106 466.279 200.293 466.724 200.665C467.172 201.037 467.396 201.505 467.396 202.068C467.396 202.419 467.299 202.711 467.104 202.944C466.914 203.172 466.611 203.386 466.197 203.585C466.696 203.72 467.069 203.926 467.314 204.201C467.564 204.476 467.688 204.819 467.688 205.229C467.688 205.754 467.443 206.207 466.952 206.587C466.461 206.964 465.755 207.152 464.832 207.152C463.224 207.152 462.24 206.524 461.88 205.267L463.512 204.969C463.774 205.629 464.208 205.959 464.813 205.959C465.147 205.959 465.414 205.872 465.613 205.699C465.816 205.521 465.917 205.314 465.917 205.077C465.917 204.814 465.812 204.609 465.6 204.461C465.393 204.309 465.12 204.232 464.781 204.232H464.477ZM472.297 204.531L474.023 204.321C474.078 204.761 474.227 205.098 474.468 205.331C474.709 205.563 475.001 205.68 475.344 205.68C475.712 205.68 476.021 205.54 476.271 205.261C476.524 204.981 476.651 204.605 476.651 204.131C476.651 203.682 476.531 203.327 476.29 203.064C476.048 202.802 475.754 202.671 475.407 202.671C475.179 202.671 474.906 202.715 474.588 202.804L474.785 201.351C475.268 201.363 475.636 201.26 475.89 201.04C476.144 200.815 476.271 200.519 476.271 200.151C476.271 199.838 476.177 199.588 475.991 199.402C475.805 199.216 475.557 199.123 475.249 199.123C474.944 199.123 474.684 199.228 474.468 199.44C474.252 199.652 474.121 199.96 474.074 200.367L472.43 200.087C472.544 199.525 472.716 199.076 472.944 198.742C473.177 198.403 473.499 198.139 473.909 197.948C474.324 197.754 474.787 197.656 475.299 197.656C476.175 197.656 476.878 197.936 477.407 198.494C477.843 198.951 478.061 199.467 478.061 200.043C478.061 200.86 477.614 201.511 476.721 201.998C477.254 202.112 477.68 202.368 477.997 202.766C478.319 203.164 478.479 203.644 478.479 204.207C478.479 205.024 478.181 205.72 477.584 206.295C476.988 206.871 476.245 207.159 475.356 207.159C474.514 207.159 473.816 206.917 473.262 206.435C472.707 205.948 472.386 205.314 472.297 204.531ZM483.646 200.259H485.855L487.531 204.956L489.22 200.259H491.422V207H489.905V202.563L488.261 207H486.738L485.17 202.563V207H483.646V200.259ZM497.123 204.854L498.9 205.153C498.671 205.805 498.31 206.302 497.814 206.645C497.324 206.983 496.708 207.152 495.967 207.152C494.795 207.152 493.928 206.769 493.365 206.003C492.92 205.39 492.698 204.615 492.698 203.68C492.698 202.563 492.99 201.689 493.574 201.059C494.158 200.424 494.897 200.106 495.79 200.106C496.792 200.106 497.584 200.439 498.164 201.103C498.743 201.763 499.021 202.777 498.995 204.144L494.526 204.144C494.539 204.673 494.683 205.085 494.958 205.381C495.233 205.673 495.576 205.819 495.986 205.819C496.266 205.819 496.5 205.743 496.691 205.591C496.881 205.438 497.025 205.193 497.123 204.854ZM497.224 203.052C497.211 202.535 497.078 202.144 496.824 201.877C496.57 201.607 496.261 201.471 495.897 201.471C495.508 201.471 495.187 201.613 494.933 201.896C494.679 202.18 494.554 202.565 494.558 203.052L497.224 203.052ZM506.155 202.252L504.397 202.569C504.338 202.218 504.202 201.954 503.991 201.776C503.783 201.598 503.513 201.509 503.178 201.509C502.734 201.509 502.378 201.664 502.112 201.973C501.849 202.277 501.718 202.789 501.718 203.509C501.718 204.309 501.852 204.874 502.118 205.204C502.389 205.534 502.751 205.699 503.204 205.699C503.542 205.699 503.819 205.604 504.035 205.413C504.251 205.218 504.403 204.886 504.492 204.417L506.244 204.715C506.062 205.519 505.713 206.126 505.197 206.537C504.681 206.947 503.989 207.152 503.121 207.152C502.135 207.152 501.348 206.841 500.76 206.219C500.176 205.597 499.884 204.736 499.884 203.636C499.884 202.523 500.178 201.657 500.766 201.04C501.354 200.417 502.15 200.106 503.153 200.106C503.974 200.106 504.625 200.284 505.108 200.64C505.595 200.991 505.944 201.528 506.155 202.252ZM513.29 200.259V207H511.519V204.201H511.354C510.969 204.201 510.685 204.251 510.503 204.353C510.326 204.45 510.127 204.66 509.907 204.981L509.799 205.115L508.625 207H506.549L507.825 205.045C508.189 204.486 508.519 204.165 508.815 204.08C508.316 204.05 507.909 203.862 507.596 203.515C507.287 203.164 507.133 202.717 507.133 202.176C507.133 201.74 507.234 201.368 507.438 201.059C507.645 200.75 507.918 200.54 508.256 200.43C508.599 200.316 509.107 200.259 509.78 200.259H513.29ZM511.519 201.408H510.243C509.773 201.408 509.443 201.475 509.253 201.611C509.062 201.742 508.967 201.962 508.967 202.271C508.967 202.58 509.075 202.802 509.291 202.938C509.507 203.073 509.86 203.141 510.351 203.141H511.519V201.408ZM515.042 200.259H516.826V205.559H519.371V200.259H521.155V205.559H521.859V208.777H520.418V207H515.042V200.259ZM524.602 202.315L522.983 202.023C523.165 201.372 523.478 200.889 523.922 200.576C524.367 200.263 525.027 200.106 525.903 200.106C526.698 200.106 527.291 200.202 527.68 200.392C528.069 200.578 528.342 200.817 528.499 201.109C528.66 201.397 528.74 201.928 528.74 202.703L528.721 204.785C528.721 205.377 528.749 205.815 528.804 206.099C528.863 206.378 528.971 206.678 529.127 207H527.363C527.316 206.882 527.259 206.706 527.191 206.473C527.162 206.367 527.141 206.298 527.128 206.264C526.823 206.56 526.497 206.782 526.15 206.93C525.803 207.078 525.433 207.152 525.04 207.152C524.346 207.152 523.798 206.964 523.396 206.587C522.998 206.211 522.799 205.735 522.799 205.159C522.799 204.778 522.89 204.44 523.072 204.144C523.254 203.843 523.508 203.615 523.833 203.458C524.164 203.297 524.638 203.158 525.255 203.039C526.089 202.882 526.667 202.736 526.988 202.601V202.423C526.988 202.081 526.904 201.837 526.734 201.693C526.565 201.545 526.246 201.471 525.776 201.471C525.458 201.471 525.211 201.535 525.033 201.662C524.855 201.784 524.712 202.002 524.602 202.315ZM526.988 203.763C526.76 203.839 526.398 203.93 525.903 204.036C525.408 204.141 525.084 204.245 524.932 204.347C524.699 204.512 524.583 204.721 524.583 204.975C524.583 205.225 524.676 205.441 524.862 205.623C525.048 205.805 525.285 205.896 525.573 205.896C525.894 205.896 526.201 205.79 526.493 205.578C526.709 205.417 526.851 205.221 526.918 204.988C526.965 204.835 526.988 204.546 526.988 204.118V203.763Z" fill="#2C2276"/>
<path d="M127.122 197.694H128.88V203.89L132.651 197.694H134.523V207H132.765V200.925L129.001 207H127.122V197.694ZM142.306 202.252L140.547 202.569C140.488 202.218 140.353 201.954 140.141 201.776C139.934 201.598 139.663 201.509 139.329 201.509C138.884 201.509 138.529 201.664 138.262 201.973C138 202.277 137.869 202.789 137.869 203.509C137.869 204.309 138.002 204.874 138.269 205.204C138.539 205.534 138.901 205.699 139.354 205.699C139.693 205.699 139.97 205.604 140.186 205.413C140.401 205.218 140.554 204.886 140.643 204.417L142.395 204.715C142.213 205.519 141.863 206.126 141.347 206.537C140.831 206.947 140.139 207.152 139.271 207.152C138.285 207.152 137.498 206.841 136.91 206.219C136.326 205.597 136.034 204.736 136.034 203.636C136.034 202.523 136.328 201.657 136.917 201.04C137.505 200.417 138.3 200.106 139.303 200.106C140.124 200.106 140.776 200.284 141.258 200.64C141.745 200.991 142.094 201.528 142.306 202.252ZM142.629 207L145.061 203.528L142.731 200.259H144.908L146.102 202.112L147.358 200.259H149.453L147.168 203.452L149.663 207H147.473L146.102 204.912L144.718 207H142.629ZM149.98 203.534C149.98 202.942 150.126 202.368 150.418 201.814C150.71 201.26 151.123 200.836 151.656 200.544C152.193 200.252 152.792 200.106 153.452 200.106C154.472 200.106 155.308 200.439 155.959 201.103C156.611 201.763 156.937 202.599 156.937 203.61C156.937 204.63 156.607 205.477 155.947 206.149C155.291 206.818 154.464 207.152 153.465 207.152C152.847 207.152 152.257 207.013 151.694 206.733C151.135 206.454 150.71 206.046 150.418 205.508C150.126 204.967 149.98 204.309 149.98 203.534ZM151.808 203.629C151.808 204.298 151.967 204.81 152.284 205.166C152.602 205.521 152.993 205.699 153.458 205.699C153.924 205.699 154.313 205.521 154.626 205.166C154.944 204.81 155.103 204.294 155.103 203.617C155.103 202.957 154.944 202.449 154.626 202.093C154.313 201.738 153.924 201.56 153.458 201.56C152.993 201.56 152.602 201.738 152.284 202.093C151.967 202.449 151.808 202.961 151.808 203.629ZM163.735 207H158.632V208.777H157.185V205.54H157.915C158.219 205.201 158.471 204.673 158.67 203.953C158.869 203.234 158.987 202.002 159.025 200.259H164.465V205.54H165.189V208.777H163.735V207ZM162.701 205.54L162.707 201.725H160.549C160.477 203.587 160.181 204.859 159.66 205.54H162.701ZM166.344 200.259H168.128V202.728H170.68V200.259H172.47V207H170.68V204.169H168.128V207H166.344V200.259ZM173.86 203.534C173.86 202.942 174.006 202.368 174.298 201.814C174.59 201.26 175.002 200.836 175.536 200.544C176.073 200.252 176.672 200.106 177.332 200.106C178.352 200.106 179.188 200.439 179.839 201.103C180.491 201.763 180.817 202.599 180.817 203.61C180.817 204.63 180.487 205.477 179.827 206.149C179.171 206.818 178.343 207.152 177.345 207.152C176.727 207.152 176.137 207.013 175.574 206.733C175.015 206.454 174.59 206.046 174.298 205.508C174.006 204.967 173.86 204.309 173.86 203.534ZM175.688 203.629C175.688 204.298 175.847 204.81 176.164 205.166C176.481 205.521 176.873 205.699 177.338 205.699C177.804 205.699 178.193 205.521 178.506 205.166C178.824 204.81 178.982 204.294 178.982 203.617C178.982 202.957 178.824 202.449 178.506 202.093C178.193 201.738 177.804 201.56 177.338 201.56C176.873 201.56 176.481 201.738 176.164 202.093C175.847 202.449 175.688 202.961 175.688 203.629ZM186.124 204.854L187.901 205.153C187.672 205.805 187.311 206.302 186.815 206.645C186.325 206.983 185.709 207.152 184.968 207.152C183.796 207.152 182.929 206.769 182.366 206.003C181.921 205.39 181.699 204.615 181.699 203.68C181.699 202.563 181.991 201.689 182.575 201.059C183.159 200.424 183.898 200.106 184.791 200.106C185.793 200.106 186.585 200.439 187.165 201.103C187.744 201.763 188.021 202.777 187.996 204.144H183.527C183.54 204.673 183.684 205.085 183.959 205.381C184.234 205.673 184.577 205.819 184.987 205.819C185.267 205.819 185.501 205.743 185.692 205.591C185.882 205.438 186.026 205.193 186.124 204.854ZM186.225 203.052C186.212 202.535 186.079 202.144 185.825 201.877C185.571 201.607 185.262 201.471 184.898 201.471C184.509 201.471 184.188 201.613 183.934 201.896C183.68 202.18 183.555 202.565 183.559 203.052H186.225ZM193.093 197.694H196.813C197.549 197.694 198.097 197.726 198.457 197.79C198.821 197.849 199.145 197.976 199.428 198.17C199.716 198.365 199.955 198.625 200.146 198.951C200.336 199.273 200.431 199.635 200.431 200.037C200.431 200.472 200.313 200.872 200.076 201.236C199.843 201.6 199.526 201.873 199.124 202.055C199.691 202.22 200.126 202.502 200.431 202.899C200.736 203.297 200.888 203.765 200.888 204.302C200.888 204.725 200.789 205.138 200.59 205.54C200.395 205.938 200.126 206.257 199.784 206.499C199.445 206.736 199.026 206.882 198.527 206.937C198.214 206.97 197.458 206.992 196.261 207H193.093V197.694ZM194.972 199.243V201.395H196.204C196.936 201.395 197.391 201.384 197.568 201.363C197.89 201.325 198.142 201.215 198.324 201.033C198.51 200.847 198.603 200.604 198.603 200.303C198.603 200.015 198.523 199.783 198.362 199.605C198.205 199.423 197.97 199.313 197.657 199.275C197.471 199.254 196.936 199.243 196.051 199.243H194.972ZM194.972 202.944V205.432H196.711C197.389 205.432 197.818 205.413 198 205.375C198.279 205.324 198.506 205.201 198.679 205.007C198.857 204.808 198.946 204.543 198.946 204.213C198.946 203.934 198.878 203.697 198.743 203.502C198.607 203.308 198.41 203.166 198.152 203.077C197.898 202.988 197.344 202.944 196.489 202.944H194.972ZM202.577 197.694H208.88V199.256H204.456V207H202.577V197.694ZM210.276 197.694L216.707 197.694V205.438H217.525V209.031H215.964V207H210.105V209.031H208.543V205.438H209.331C209.716 204.643 209.97 203.72 210.092 202.671C210.215 201.617 210.276 200.286 210.276 198.678V197.694ZM212.066 199.256C212.066 202.083 211.81 204.144 211.298 205.438H214.834V199.256H212.066Z" fill="#2C2276"/>
<path d="M310.064 88.5088L310.386 86.7545L313.832 87.3877L313.51 89.1421L310.064 88.5088ZM314.125 89.5906L315.857 89.7153C315.835 90.0684 315.896 90.3443 316.041 90.5429C316.185 90.7415 316.401 90.8672 316.688 90.92C317.05 90.9865 317.388 90.8766 317.703 90.5903C318.019 90.304 318.308 89.6429 318.571 88.607C318.036 89.0379 317.438 89.1926 316.776 89.071C316.056 88.9386 315.484 88.5475 315.062 87.8976C314.644 87.2443 314.517 86.4723 314.68 85.5816C314.851 84.6535 315.263 83.9568 315.916 83.4917C316.575 83.0233 317.33 82.8674 318.184 83.0242C319.112 83.1947 319.807 83.6947 320.27 84.5241C320.734 85.3493 320.815 86.584 320.513 88.228C320.205 89.9012 319.673 91.0512 318.917 91.6781C318.161 92.305 317.285 92.5271 316.29 92.3443C315.575 92.2127 315.031 91.9171 314.659 91.4572C314.288 90.9933 314.11 90.371 314.125 89.5906ZM318.8 86.4869C318.904 85.9209 318.853 85.4577 318.648 85.0973C318.448 84.7378 318.177 84.5266 317.835 84.4639C317.511 84.4043 317.216 84.4836 316.953 84.7019C316.694 84.9167 316.511 85.3155 316.404 85.8982C316.295 86.4892 316.332 86.9456 316.513 87.2673C316.696 87.5848 316.962 87.7757 317.312 87.8399C317.649 87.9019 317.956 87.8207 318.234 87.5964C318.516 87.3728 318.705 87.003 318.8 86.4869ZM321.469 91.3144L323.223 91.6367L322.992 92.8916C322.899 93.3994 322.782 93.7909 322.641 94.0662C322.499 94.3457 322.284 94.5794 321.996 94.7673C321.712 94.956 321.37 95.0826 320.971 95.1469L320.761 94.3596C321.136 94.3081 321.417 94.1941 321.604 94.0177C321.792 93.8413 321.922 93.577 321.995 93.2247L321.146 93.0687L321.469 91.3144ZM330.598 93.121L330.299 94.7505L324.149 93.6205C324.329 93.0167 324.636 92.4708 325.07 91.9825C325.504 91.4902 326.297 90.8785 327.446 90.1475C328.373 89.5561 328.949 89.1457 329.176 88.9164C329.484 88.5987 329.671 88.2629 329.736 87.9091C329.808 87.5179 329.757 87.1987 329.583 86.9516C329.413 86.7011 329.144 86.5418 328.773 86.4737C328.407 86.4064 328.095 86.4632 327.838 86.644C327.581 86.8248 327.389 87.1682 327.262 87.674L325.546 87.178C325.827 86.2315 326.282 85.5985 326.908 85.2791C327.535 84.9597 328.26 84.8757 329.084 85.0271C329.987 85.1931 330.652 85.567 331.079 86.1488C331.506 86.7305 331.652 87.3835 331.519 88.1078C331.444 88.5198 331.296 88.8994 331.078 89.2464C330.864 89.5901 330.559 89.9364 330.164 90.2854C329.902 90.5169 329.448 90.8357 328.801 91.2418C328.154 91.6478 327.74 91.9203 327.56 92.0593C327.383 92.199 327.235 92.3395 327.114 92.4809L330.598 93.121ZM334.066 93.1451L334.503 90.7664L332.106 90.3259L332.407 88.684L334.805 89.1245L335.242 86.7459L336.84 87.0395L336.403 89.4182L338.806 89.8598L338.505 91.5018L336.101 91.0601L335.664 93.4387L334.066 93.1451ZM331.26 94.9271L331.562 93.2852L337.961 94.461L337.659 96.103L331.26 94.9271ZM338.892 93.8189L340.628 93.9249C340.603 94.3677 340.688 94.7254 340.883 94.9979C341.078 95.2704 341.344 95.4376 341.681 95.4996C342.043 95.5661 342.372 95.4846 342.668 95.255C342.969 95.0262 343.162 94.6787 343.247 94.2126C343.328 93.7714 343.274 93.4 343.084 93.0983C342.894 92.7967 342.629 92.6145 342.287 92.5518C342.063 92.5105 341.786 92.5049 341.458 92.5349L341.914 91.1408C342.386 91.2405 342.767 91.205 343.057 91.0345C343.347 90.8598 343.525 90.5914 343.592 90.2293C343.649 89.9213 343.602 89.6589 343.453 89.4421C343.303 89.2253 343.076 89.089 342.773 89.0332C342.473 88.9781 342.198 89.0352 341.947 89.2043C341.697 89.3734 341.512 89.6535 341.393 90.0446L339.826 89.4728C340.04 88.9399 340.29 88.5297 340.575 88.2422C340.865 87.9513 341.229 87.7493 341.668 87.6362C342.111 87.5197 342.584 87.5077 343.088 87.6002C343.949 87.7585 344.59 88.1602 345.009 88.8052C345.355 89.3334 345.476 89.8806 345.372 90.4466C345.224 91.2499 344.668 91.8102 343.701 92.1275C344.205 92.3362 344.577 92.6649 344.817 93.1135C345.062 93.5628 345.133 94.0643 345.032 94.6179C344.884 95.4211 344.465 96.0519 343.774 96.5101C343.083 96.9683 342.301 97.1171 341.426 96.9565C340.598 96.8043 339.955 96.4409 339.497 95.8662C339.04 95.2874 338.838 94.605 338.892 93.8189ZM346.279 95.8732L348.033 96.1956L347.803 97.4504C347.709 97.9582 347.592 98.3497 347.451 98.625C347.309 98.9045 347.094 99.1382 346.806 99.3261C346.522 99.5149 346.18 99.6414 345.781 99.7058L345.571 98.9185C345.946 98.8669 346.227 98.7529 346.415 98.5765C346.602 98.4001 346.732 98.1358 346.806 97.7835L345.956 97.6275L346.279 95.8732ZM350.544 90.8225L350.843 89.193L356.843 90.2955L356.609 91.5691C356.024 91.965 355.392 92.5717 354.712 93.3891C354.033 94.2066 353.463 95.1045 353.004 96.0828C352.55 97.0577 352.25 97.9493 352.106 98.7575L350.414 98.4466C350.676 97.1867 351.173 95.9442 351.906 94.7193C352.643 93.495 353.518 92.4405 354.533 91.5555L350.544 90.8225Z" fill="#2C2276"/>
<path d="M135.786 239.842H136.646V245.511L140.454 239.842H141.406V247H140.547V241.346L136.733 247H135.786V239.842ZM146.23 245.101L147.095 245.213C147 245.809 146.758 246.276 146.367 246.614C145.98 246.95 145.503 247.117 144.937 247.117C144.227 247.117 143.656 246.886 143.223 246.424C142.793 245.958 142.578 245.293 142.578 244.427C142.578 243.867 142.671 243.377 142.856 242.957C143.042 242.537 143.324 242.223 143.701 242.015C144.082 241.803 144.495 241.697 144.941 241.697C145.505 241.697 145.965 241.84 146.323 242.127C146.681 242.41 146.911 242.814 147.012 243.338L146.157 243.47C146.076 243.121 145.931 242.859 145.723 242.684C145.518 242.508 145.269 242.42 144.976 242.42C144.533 242.42 144.173 242.579 143.896 242.898C143.62 243.214 143.481 243.715 143.481 244.402C143.481 245.099 143.615 245.605 143.882 245.921C144.149 246.237 144.497 246.395 144.927 246.395C145.272 246.395 145.56 246.289 145.791 246.077C146.022 245.866 146.169 245.54 146.23 245.101ZM147.261 247L149.155 244.305L147.402 241.814H148.501L149.297 243.03C149.447 243.261 149.567 243.455 149.658 243.611C149.801 243.396 149.933 243.206 150.054 243.04L150.928 241.814H151.978L150.186 244.256L152.114 247H151.035L149.971 245.389L149.688 244.954L148.325 247H147.261ZM152.402 244.407C152.402 243.447 152.669 242.736 153.203 242.273C153.649 241.889 154.193 241.697 154.834 241.697C155.547 241.697 156.13 241.932 156.582 242.4C157.035 242.866 157.261 243.51 157.261 244.334C157.261 245.001 157.16 245.527 156.958 245.911C156.759 246.292 156.468 246.588 156.084 246.8C155.703 247.011 155.286 247.117 154.834 247.117C154.108 247.117 153.521 246.884 153.071 246.419C152.625 245.953 152.402 245.283 152.402 244.407ZM153.306 244.407C153.306 245.071 153.451 245.569 153.74 245.901C154.03 246.23 154.395 246.395 154.834 246.395C155.27 246.395 155.633 246.229 155.923 245.896C156.213 245.564 156.357 245.058 156.357 244.378C156.357 243.737 156.211 243.252 155.918 242.923C155.628 242.591 155.267 242.425 154.834 242.425C154.395 242.425 154.03 242.589 153.74 242.918C153.451 243.247 153.306 243.743 153.306 244.407ZM158.765 241.814H162.378V246.277H162.939V248.47H162.217V247H158.135V248.47H157.412V246.277H157.876C158.494 245.438 158.791 243.95 158.765 241.814ZM159.497 242.542C159.432 244.225 159.172 245.47 158.716 246.277H161.504V242.542H159.497ZM163.916 241.814H164.795V243.973H167.231V241.814H168.11V247H167.231V244.7H164.795V247H163.916V241.814ZM169.111 244.407C169.111 243.447 169.378 242.736 169.912 242.273C170.358 241.889 170.902 241.697 171.543 241.697C172.256 241.697 172.839 241.932 173.291 242.4C173.743 242.866 173.97 243.51 173.97 244.334C173.97 245.001 173.869 245.527 173.667 245.911C173.468 246.292 173.177 246.588 172.793 246.8C172.412 247.011 171.995 247.117 171.543 247.117C170.817 247.117 170.229 246.884 169.78 246.419C169.334 245.953 169.111 245.283 169.111 244.407ZM170.015 244.407C170.015 245.071 170.16 245.569 170.449 245.901C170.739 246.23 171.104 246.395 171.543 246.395C171.979 246.395 172.342 246.229 172.632 245.896C172.922 245.564 173.066 245.058 173.066 244.378C173.066 243.737 172.92 243.252 172.627 242.923C172.337 242.591 171.976 242.425 171.543 242.425C171.104 242.425 170.739 242.589 170.449 242.918C170.16 243.247 170.015 243.743 170.015 244.407ZM178.555 245.33L179.463 245.442C179.32 245.973 179.054 246.385 178.667 246.678C178.28 246.971 177.785 247.117 177.183 247.117C176.424 247.117 175.822 246.884 175.376 246.419C174.933 245.95 174.712 245.294 174.712 244.451C174.712 243.579 174.937 242.902 175.386 242.42C175.835 241.938 176.418 241.697 177.134 241.697C177.827 241.697 178.394 241.933 178.833 242.405C179.272 242.877 179.492 243.541 179.492 244.397C179.492 244.45 179.491 244.528 179.487 244.632H175.62C175.653 245.201 175.814 245.638 176.104 245.94C176.393 246.243 176.755 246.395 177.188 246.395C177.51 246.395 177.785 246.31 178.013 246.141C178.241 245.971 178.421 245.701 178.555 245.33ZM175.669 243.909H178.564C178.525 243.473 178.415 243.146 178.232 242.928C177.952 242.589 177.59 242.42 177.144 242.42C176.74 242.42 176.4 242.555 176.123 242.825C175.85 243.095 175.698 243.457 175.669 243.909ZM183.428 247V239.842H186.113C186.66 239.842 187.098 239.915 187.427 240.062C187.759 240.205 188.018 240.428 188.203 240.73C188.392 241.03 188.486 241.344 188.486 241.673C188.486 241.979 188.403 242.267 188.237 242.537C188.071 242.807 187.821 243.025 187.485 243.191C187.918 243.318 188.25 243.535 188.481 243.841C188.716 244.147 188.833 244.508 188.833 244.925C188.833 245.26 188.761 245.573 188.618 245.862C188.478 246.149 188.304 246.37 188.096 246.526C187.887 246.683 187.625 246.801 187.31 246.883C186.997 246.961 186.613 247 186.157 247H183.428ZM184.375 242.85H185.923C186.343 242.85 186.644 242.822 186.826 242.767C187.067 242.695 187.248 242.576 187.368 242.41C187.492 242.244 187.554 242.036 187.554 241.785C187.554 241.548 187.497 241.339 187.383 241.16C187.269 240.978 187.106 240.854 186.895 240.789C186.683 240.721 186.32 240.687 185.806 240.687H184.375V242.85ZM184.375 246.155H186.157C186.463 246.155 186.678 246.144 186.802 246.121C187.02 246.082 187.202 246.017 187.349 245.926C187.495 245.835 187.616 245.703 187.71 245.53C187.804 245.354 187.852 245.153 187.852 244.925C187.852 244.658 187.783 244.427 187.646 244.231C187.51 244.033 187.319 243.895 187.075 243.816C186.834 243.735 186.486 243.694 186.03 243.694H184.375V246.155ZM190.151 239.842H194.78V240.687H191.099V247H190.151V239.842ZM195.532 239.842H199.888V246.155H200.532V248.67H199.688V247H194.956V248.67H194.111V246.155H194.668C195.244 245.286 195.532 243.53 195.532 240.887V239.842ZM198.94 240.687H196.445V241.053C196.445 241.661 196.39 242.495 196.279 243.553C196.172 244.607 195.959 245.475 195.64 246.155H198.94V240.687ZM208.706 246.155V247H203.975C203.968 246.788 204.002 246.585 204.077 246.39C204.198 246.067 204.39 245.75 204.653 245.438C204.92 245.125 205.304 244.764 205.806 244.354C206.584 243.715 207.109 243.211 207.383 242.84C207.656 242.465 207.793 242.112 207.793 241.78C207.793 241.432 207.668 241.139 207.417 240.901C207.17 240.66 206.846 240.54 206.445 240.54C206.022 240.54 205.684 240.667 205.43 240.921C205.176 241.175 205.047 241.526 205.044 241.976L204.141 241.883C204.202 241.209 204.435 240.696 204.839 240.345C205.243 239.99 205.785 239.812 206.465 239.812C207.152 239.812 207.695 240.003 208.096 240.384C208.496 240.765 208.696 241.237 208.696 241.8C208.696 242.086 208.638 242.368 208.521 242.645C208.403 242.921 208.208 243.213 207.935 243.519C207.664 243.825 207.214 244.244 206.582 244.778C206.055 245.221 205.716 245.522 205.566 245.682C205.417 245.838 205.293 245.996 205.195 246.155H208.706ZM209.653 243.47C209.653 242.623 209.74 241.943 209.912 241.429C210.088 240.911 210.347 240.512 210.688 240.232C211.034 239.952 211.466 239.812 211.987 239.812C212.371 239.812 212.708 239.891 212.998 240.047C213.288 240.2 213.527 240.423 213.716 240.716C213.905 241.006 214.053 241.36 214.16 241.78C214.268 242.197 214.321 242.76 214.321 243.47C214.321 244.31 214.235 244.988 214.062 245.506C213.89 246.02 213.631 246.419 213.286 246.702C212.944 246.982 212.511 247.122 211.987 247.122C211.297 247.122 210.755 246.875 210.361 246.38C209.889 245.784 209.653 244.814 209.653 243.47ZM210.557 243.47C210.557 244.645 210.693 245.428 210.967 245.818C211.243 246.206 211.584 246.399 211.987 246.399C212.391 246.399 212.729 246.204 213.003 245.813C213.28 245.423 213.418 244.642 213.418 243.47C213.418 242.291 213.28 241.508 213.003 241.121C212.729 240.734 212.388 240.54 211.978 240.54C211.574 240.54 211.252 240.711 211.011 241.053C210.708 241.489 210.557 242.295 210.557 243.47ZM215.122 244.852V243.968H217.822V244.852H215.122ZM223.169 246.155V247H218.438C218.431 246.788 218.465 246.585 218.54 246.39C218.66 246.067 218.853 245.75 219.116 245.438C219.383 245.125 219.767 244.764 220.269 244.354C221.047 243.715 221.572 243.211 221.846 242.84C222.119 242.465 222.256 242.112 222.256 241.78C222.256 241.432 222.131 241.139 221.88 240.901C221.632 240.66 221.309 240.54 220.908 240.54C220.485 240.54 220.146 240.667 219.893 240.921C219.639 241.175 219.51 241.526 219.507 241.976L218.604 241.883C218.665 241.209 218.898 240.696 219.302 240.345C219.705 239.99 220.247 239.812 220.928 239.812C221.615 239.812 222.158 240.003 222.559 240.384C222.959 240.765 223.159 241.237 223.159 241.8C223.159 242.086 223.101 242.368 222.983 242.645C222.866 242.921 222.671 243.213 222.397 243.519C222.127 243.825 221.676 244.244 221.045 244.778C220.518 245.221 220.179 245.522 220.029 245.682C219.88 245.838 219.756 245.996 219.658 246.155H223.169ZM226.934 247V245.286H223.828V244.48L227.095 239.842H227.812V244.48H228.779V245.286H227.812V247H226.934ZM226.934 244.48V241.253L224.692 244.48H226.934ZM232.734 241.814H234.102L235.464 245.965L236.978 241.814H238.242V247H237.363V242.825L235.83 247H235.044L233.594 242.625V247H232.734V241.814ZM239.609 241.814H240.977L242.339 245.965L243.853 241.814H245.117V247H244.238V242.825L242.705 247H241.919L240.469 242.625V247H239.609V241.814ZM249.243 248.987V241.814H250.044V242.488C250.233 242.225 250.446 242.028 250.684 241.897C250.921 241.764 251.209 241.697 251.548 241.697C251.991 241.697 252.381 241.811 252.72 242.039C253.058 242.267 253.314 242.589 253.486 243.006C253.659 243.419 253.745 243.873 253.745 244.368C253.745 244.899 253.649 245.377 253.457 245.804C253.268 246.227 252.992 246.552 252.627 246.78C252.266 247.005 251.885 247.117 251.484 247.117C251.191 247.117 250.928 247.055 250.693 246.932C250.462 246.808 250.272 246.652 250.122 246.463V248.987H249.243ZM250.039 244.437C250.039 245.104 250.174 245.597 250.444 245.916C250.715 246.235 251.042 246.395 251.426 246.395C251.816 246.395 252.15 246.23 252.427 245.901C252.707 245.569 252.847 245.057 252.847 244.363C252.847 243.702 252.71 243.208 252.437 242.879C252.166 242.55 251.842 242.386 251.465 242.386C251.09 242.386 250.758 242.562 250.469 242.913C250.182 243.261 250.039 243.769 250.039 244.437ZM254.111 241.814H258.325V242.542H256.655V247H255.781V242.542H254.111V241.814ZM258.301 247V245.999H259.302V247H258.301ZM267.002 245.101L267.866 245.213C267.772 245.809 267.529 246.276 267.139 246.614C266.751 246.95 266.274 247.117 265.708 247.117C264.998 247.117 264.427 246.886 263.994 246.424C263.564 245.958 263.35 245.293 263.35 244.427C263.35 243.867 263.442 243.377 263.628 242.957C263.813 242.537 264.095 242.223 264.473 242.015C264.854 241.803 265.267 241.697 265.713 241.697C266.276 241.697 266.737 241.84 267.095 242.127C267.453 242.41 267.682 242.814 267.783 243.338L266.929 243.47C266.847 243.121 266.702 242.859 266.494 242.684C266.289 242.508 266.04 242.42 265.747 242.42C265.304 242.42 264.945 242.579 264.668 242.898C264.391 243.214 264.253 243.715 264.253 244.402C264.253 245.099 264.386 245.605 264.653 245.921C264.92 246.237 265.269 246.395 265.698 246.395C266.043 246.395 266.331 246.289 266.562 246.077C266.794 245.866 266.94 245.54 267.002 245.101ZM268.145 241.814H272.358V242.542H270.688V247H269.814V242.542H268.145V241.814ZM272.334 247V245.999H273.335V247H272.334Z" fill="#616365"/>
<path d="M381.786 239.842H382.646V245.511L386.454 239.842H387.406V247H386.547V241.346L382.733 247H381.786V239.842ZM392.23 245.101L393.095 245.213C393 245.809 392.758 246.276 392.367 246.614C391.98 246.95 391.503 247.117 390.937 247.117C390.227 247.117 389.656 246.886 389.223 246.424C388.793 245.958 388.578 245.293 388.578 244.427C388.578 243.867 388.671 243.377 388.856 242.957C389.042 242.537 389.324 242.223 389.701 242.015C390.082 241.803 390.495 241.697 390.941 241.697C391.505 241.697 391.965 241.84 392.323 242.127C392.681 242.41 392.911 242.814 393.012 243.338L392.157 243.47C392.076 243.121 391.931 242.859 391.723 242.684C391.518 242.508 391.269 242.42 390.976 242.42C390.533 242.42 390.173 242.579 389.896 242.898C389.62 243.214 389.481 243.715 389.481 244.402C389.481 245.099 389.615 245.605 389.882 245.921C390.149 246.237 390.497 246.395 390.927 246.395C391.272 246.395 391.56 246.289 391.791 246.077C392.022 245.866 392.169 245.54 392.23 245.101ZM393.261 247L395.155 244.305L393.402 241.814H394.501L395.297 243.03C395.447 243.261 395.567 243.455 395.658 243.611C395.801 243.396 395.933 243.206 396.054 243.04L396.928 241.814H397.978L396.186 244.256L398.114 247H397.035L395.971 245.389L395.688 244.954L394.325 247H393.261ZM398.402 244.407C398.402 243.447 398.669 242.736 399.203 242.273C399.649 241.889 400.193 241.697 400.834 241.697C401.547 241.697 402.13 241.932 402.582 242.4C403.035 242.866 403.261 243.51 403.261 244.334C403.261 245.001 403.16 245.527 402.958 245.911C402.759 246.292 402.468 246.588 402.084 246.8C401.703 247.011 401.286 247.117 400.834 247.117C400.108 247.117 399.521 246.884 399.071 246.419C398.625 245.953 398.402 245.283 398.402 244.407ZM399.306 244.407C399.306 245.071 399.451 245.569 399.74 245.901C400.03 246.23 400.395 246.395 400.834 246.395C401.27 246.395 401.633 246.229 401.923 245.896C402.213 245.564 402.357 245.058 402.357 244.378C402.357 243.737 402.211 243.252 401.918 242.923C401.628 242.591 401.267 242.425 400.834 242.425C400.395 242.425 400.03 242.589 399.74 242.918C399.451 243.247 399.306 243.743 399.306 244.407ZM404.765 241.814H408.378V246.277H408.939V248.47H408.217V247H404.135V248.47H403.412V246.277H403.876C404.494 245.438 404.791 243.95 404.765 241.814ZM405.497 242.542C405.432 244.225 405.172 245.47 404.716 246.277H407.504V242.542H405.497ZM409.916 241.814H410.795V243.973H413.231V241.814H414.11V247H413.231V244.7H410.795V247H409.916V241.814ZM415.111 244.407C415.111 243.447 415.378 242.736 415.912 242.273C416.358 241.889 416.902 241.697 417.543 241.697C418.256 241.697 418.839 241.932 419.291 242.4C419.743 242.866 419.97 243.51 419.97 244.334C419.97 245.001 419.869 245.527 419.667 245.911C419.468 246.292 419.177 246.588 418.793 246.8C418.412 247.011 417.995 247.117 417.543 247.117C416.817 247.117 416.229 246.884 415.78 246.419C415.334 245.953 415.111 245.283 415.111 244.407ZM416.015 244.407C416.015 245.071 416.16 245.569 416.449 245.901C416.739 246.23 417.104 246.395 417.543 246.395C417.979 246.395 418.342 246.229 418.632 245.896C418.922 245.564 419.066 245.058 419.066 244.378C419.066 243.737 418.92 243.252 418.627 242.923C418.337 242.591 417.976 242.425 417.543 242.425C417.104 242.425 416.739 242.589 416.449 242.918C416.16 243.247 416.015 243.743 416.015 244.407ZM424.555 245.33L425.463 245.442C425.32 245.973 425.054 246.385 424.667 246.678C424.28 246.971 423.785 247.117 423.183 247.117C422.424 247.117 421.822 246.884 421.376 246.419C420.933 245.95 420.712 245.294 420.712 244.451C420.712 243.579 420.937 242.902 421.386 242.42C421.835 241.938 422.418 241.697 423.134 241.697C423.827 241.697 424.394 241.933 424.833 242.405C425.272 242.877 425.492 243.541 425.492 244.397C425.492 244.45 425.491 244.528 425.487 244.632H421.62C421.653 245.201 421.814 245.638 422.104 245.94C422.393 246.243 422.755 246.395 423.188 246.395C423.51 246.395 423.785 246.31 424.013 246.141C424.241 245.971 424.421 245.701 424.555 245.33ZM421.669 243.909H424.564C424.525 243.473 424.415 243.146 424.232 242.928C423.952 242.589 423.59 242.42 423.144 242.42C422.74 242.42 422.4 242.555 422.123 242.825C421.85 243.095 421.698 243.457 421.669 243.909ZM429.428 247V239.842H432.113C432.66 239.842 433.098 239.915 433.427 240.062C433.759 240.205 434.018 240.428 434.203 240.73C434.392 241.03 434.486 241.344 434.486 241.673C434.486 241.979 434.403 242.267 434.237 242.537C434.071 242.807 433.821 243.025 433.485 243.191C433.918 243.318 434.25 243.535 434.481 243.841C434.716 244.147 434.833 244.508 434.833 244.925C434.833 245.26 434.761 245.573 434.618 245.862C434.478 246.149 434.304 246.37 434.096 246.526C433.887 246.683 433.625 246.801 433.31 246.883C432.997 246.961 432.613 247 432.157 247H429.428ZM430.375 242.85H431.923C432.343 242.85 432.644 242.822 432.826 242.767C433.067 242.695 433.248 242.576 433.368 242.41C433.492 242.244 433.554 242.036 433.554 241.785C433.554 241.548 433.497 241.339 433.383 241.16C433.269 240.978 433.106 240.854 432.895 240.789C432.683 240.721 432.32 240.687 431.806 240.687H430.375V242.85ZM430.375 246.155H432.157C432.463 246.155 432.678 246.144 432.802 246.121C433.02 246.082 433.202 246.017 433.349 245.926C433.495 245.835 433.616 245.703 433.71 245.53C433.804 245.354 433.852 245.153 433.852 244.925C433.852 244.658 433.783 244.427 433.646 244.231C433.51 244.033 433.319 243.895 433.075 243.816C432.834 243.735 432.486 243.694 432.03 243.694H430.375V246.155ZM436.151 239.842H440.78V240.687H437.099V247H436.151V239.842ZM441.532 239.842H445.888V246.155H446.532V248.67H445.688V247H440.956V248.67H440.111V246.155H440.668C441.244 245.286 441.532 243.53 441.532 240.887V239.842ZM444.94 240.687H442.445V241.053C442.445 241.661 442.39 242.495 442.279 243.553C442.172 244.607 441.959 245.475 441.64 246.155H444.94V240.687ZM454.706 246.155V247H449.975C449.968 246.788 450.002 246.585 450.077 246.39C450.198 246.067 450.39 245.75 450.653 245.438C450.92 245.125 451.304 244.764 451.806 244.354C452.584 243.715 453.109 243.211 453.383 242.84C453.656 242.465 453.793 242.112 453.793 241.78C453.793 241.432 453.668 241.139 453.417 240.901C453.17 240.66 452.846 240.54 452.445 240.54C452.022 240.54 451.684 240.667 451.43 240.921C451.176 241.175 451.047 241.526 451.044 241.976L450.141 241.883C450.202 241.209 450.435 240.696 450.839 240.345C451.243 239.99 451.785 239.812 452.465 239.812C453.152 239.812 453.695 240.003 454.096 240.384C454.496 240.765 454.696 241.237 454.696 241.8C454.696 242.086 454.638 242.368 454.521 242.645C454.403 242.921 454.208 243.213 453.935 243.519C453.664 243.825 453.214 244.244 452.582 244.778C452.055 245.221 451.716 245.522 451.566 245.682C451.417 245.838 451.293 245.996 451.195 246.155H454.706ZM458.471 247V245.286H455.365V244.48L458.632 239.842H459.35V244.48H460.316V245.286H459.35V247H458.471ZM458.471 244.48V241.253L456.229 244.48H458.471ZM464.271 241.814H465.639L467.001 245.965L468.515 241.814H469.779V247H468.9V242.825L467.367 247H466.581L465.131 242.625V247H464.271V241.814ZM471.146 241.814H472.514L473.876 245.965L475.39 241.814H476.654V247H475.775V242.825L474.242 247H473.456L472.006 242.625V247H471.146V241.814ZM480.78 248.987V241.814H481.581V242.488C481.77 242.225 481.983 242.028 482.221 241.897C482.458 241.764 482.746 241.697 483.085 241.697C483.528 241.697 483.918 241.811 484.257 242.039C484.595 242.267 484.851 242.589 485.023 243.006C485.196 243.419 485.282 243.873 485.282 244.368C485.282 244.899 485.186 245.377 484.994 245.804C484.805 246.227 484.529 246.552 484.164 246.78C483.803 247.005 483.422 247.117 483.021 247.117C482.729 247.117 482.465 247.055 482.23 246.932C481.999 246.808 481.809 246.652 481.659 246.463V248.987H480.78ZM481.576 244.437C481.576 245.104 481.711 245.597 481.981 245.916C482.252 246.235 482.579 246.395 482.963 246.395C483.354 246.395 483.687 246.23 483.964 245.901C484.244 245.569 484.384 245.057 484.384 244.363C484.384 243.702 484.247 243.208 483.974 242.879C483.703 242.55 483.38 242.386 483.002 242.386C482.628 242.386 482.296 242.562 482.006 242.913C481.719 243.261 481.576 243.769 481.576 244.437ZM485.648 241.814H489.862V242.542H488.192V247H487.318V242.542H485.648V241.814ZM489.838 247V245.999H490.839V247H489.838ZM498.539 245.101L499.403 245.213C499.309 245.809 499.066 246.276 498.676 246.614C498.288 246.95 497.812 247.117 497.245 247.117C496.535 247.117 495.964 246.886 495.531 246.424C495.102 245.958 494.887 245.293 494.887 244.427C494.887 243.867 494.979 243.377 495.165 242.957C495.351 242.537 495.632 242.223 496.01 242.015C496.391 241.803 496.804 241.697 497.25 241.697C497.813 241.697 498.274 241.84 498.632 242.127C498.99 242.41 499.219 242.814 499.32 243.338L498.466 243.47C498.384 243.121 498.24 242.859 498.031 242.684C497.826 242.508 497.577 242.42 497.284 242.42C496.841 242.42 496.482 242.579 496.205 242.898C495.928 243.214 495.79 243.715 495.79 244.402C495.79 245.099 495.924 245.605 496.19 245.921C496.457 246.237 496.806 246.395 497.235 246.395C497.58 246.395 497.868 246.289 498.1 246.077C498.331 245.866 498.477 245.54 498.539 245.101ZM499.682 241.814H503.896V242.542H502.226V247H501.352V242.542H499.682V241.814ZM503.871 247V245.999H504.872V247H503.871Z" fill="#616365"/>
<path d="M290.997 131.394L291.252 129.629L294.72 130.13L294.465 131.895L290.997 131.394ZM301.736 128.353L300 128.295C300.009 127.937 299.938 127.661 299.786 127.468C299.634 127.276 299.418 127.159 299.137 127.118C298.765 127.064 298.424 127.186 298.116 127.484C297.812 127.782 297.55 128.456 297.33 129.506C297.845 129.05 298.429 128.87 299.082 128.964C299.82 129.07 300.409 129.442 300.852 130.079C301.299 130.716 301.458 131.479 301.33 132.367C301.194 133.309 300.808 134.025 300.173 134.515C299.538 135.005 298.787 135.187 297.92 135.062C296.99 134.928 296.278 134.457 295.783 133.65C295.288 132.839 295.16 131.611 295.398 129.965C295.641 128.277 296.129 127.105 296.861 126.45C297.593 125.794 298.457 125.539 299.454 125.682C300.153 125.783 300.703 126.064 301.102 126.523C301.507 126.979 301.718 127.589 301.736 128.353ZM297.178 131.626C297.095 132.2 297.163 132.663 297.381 133.015C297.601 133.363 297.88 133.562 298.219 133.611C298.546 133.658 298.836 133.57 299.091 133.346C299.346 133.122 299.515 132.718 299.599 132.136C299.686 131.537 299.632 131.083 299.437 130.772C299.243 130.458 298.97 130.275 298.618 130.224C298.279 130.175 297.973 130.268 297.699 130.502C297.427 130.732 297.253 131.107 297.178 131.626ZM302.501 133.761L304.266 134.016L304.084 135.279C304.01 135.79 303.908 136.185 303.778 136.466C303.647 136.751 303.441 136.992 303.16 137.191C302.883 137.391 302.547 137.53 302.15 137.61L301.91 136.831C302.283 136.765 302.56 136.641 302.74 136.457C302.92 136.274 303.04 136.005 303.1 135.65L302.246 135.526L302.501 133.761ZM305.784 133.542L307.523 133.582C307.514 134.025 307.613 134.379 307.818 134.644C308.024 134.909 308.296 135.066 308.635 135.115C309 135.168 309.325 135.074 309.612 134.833C309.904 134.593 310.083 134.238 310.151 133.769C310.215 133.325 310.146 132.956 309.945 132.662C309.744 132.368 309.472 132.196 309.128 132.146C308.902 132.114 308.626 132.118 308.299 132.161L308.701 130.751C309.177 130.832 309.556 130.782 309.839 130.601C310.122 130.415 310.29 130.14 310.343 129.775C310.388 129.465 310.331 129.205 310.173 128.994C310.016 128.783 309.784 128.656 309.478 128.612C309.177 128.568 308.904 128.636 308.66 128.814C308.416 128.993 308.242 129.28 308.138 129.675L306.551 129.164C306.744 128.623 306.978 128.204 307.252 127.905C307.531 127.604 307.887 127.388 308.321 127.258C308.759 127.125 309.231 127.094 309.738 127.168C310.605 127.293 311.26 127.67 311.704 128.298C312.07 128.813 312.212 129.355 312.13 129.924C312.013 130.733 311.478 131.314 310.525 131.668C311.036 131.857 311.421 132.172 311.678 132.611C311.939 133.05 312.03 133.549 311.949 134.106C311.833 134.914 311.438 135.56 310.765 136.045C310.092 136.529 309.316 136.708 308.437 136.581C307.603 136.46 306.946 136.122 306.467 135.565C305.988 135.004 305.76 134.33 305.784 133.542ZM315.159 135.108L315.505 132.714L313.092 132.366L313.331 130.714L315.743 131.062L316.089 128.668L317.697 128.901L317.352 131.294L319.77 131.643L319.532 133.296L317.113 132.946L316.767 135.34L315.159 135.108ZM312.423 136.996L312.662 135.344L319.102 136.274L318.863 137.926L312.423 136.996ZM325.916 137.271L325.68 138.91L319.491 138.017C319.648 137.406 319.934 136.849 320.348 136.345C320.764 135.836 321.532 135.194 322.653 134.42C323.556 133.793 324.116 133.361 324.335 133.123C324.63 132.794 324.804 132.452 324.855 132.096C324.912 131.702 324.849 131.385 324.665 131.145C324.487 130.901 324.211 130.752 323.838 130.698C323.47 130.645 323.16 130.713 322.911 130.904C322.661 131.095 322.482 131.445 322.374 131.955L320.64 131.525C320.885 130.569 321.315 129.919 321.929 129.576C322.543 129.233 323.264 129.121 324.094 129.241C325.002 129.372 325.681 129.72 326.13 130.285C326.578 130.85 326.75 131.497 326.645 132.226C326.585 132.64 326.452 133.025 326.247 133.38C326.047 133.732 325.756 134.09 325.374 134.454C325.121 134.695 324.679 135.031 324.048 135.462C323.417 135.892 323.015 136.18 322.84 136.326C322.669 136.472 322.526 136.618 322.411 136.764L325.916 137.271ZM327.467 137.366L329.233 137.621L329.05 138.884C328.977 139.395 328.875 139.791 328.744 140.071C328.613 140.356 328.407 140.598 328.126 140.796C327.85 140.996 327.513 141.135 327.117 141.215L326.877 140.436C327.249 140.371 327.526 140.246 327.707 140.062C327.887 139.879 328.007 139.61 328.067 139.255L327.212 139.132L327.467 137.366ZM333.922 140.101L334.19 138.247L330.42 137.703L330.643 136.157L335.484 130.885L336.966 131.1L336.123 136.942L337.266 137.107L337.042 138.659L335.899 138.494L335.631 140.347L333.922 140.101ZM334.414 136.695L334.868 133.548L332.297 136.39L334.414 136.695Z" fill="#2C2276"/>
<line x1="108" y1="43.5" x2="545" y2="43.5" stroke="#B0B1B2" stroke-opacity="0.24"/>
<line x1="108" y1="79.5" x2="545" y2="79.5" stroke="#B0B1B2" stroke-opacity="0.24"/>
<line x1="108" y1="114.5" x2="545" y2="114.5" stroke="#B0B1B2" stroke-opacity="0.24"/>
<line x1="108" y1="151.5" x2="545" y2="151.5" stroke="#B0B1B2" stroke-opacity="0.24"/>
<path d="M83.7524 44.5308L85.479 44.3213C85.534 44.7614 85.6821 45.0978 85.9233 45.3306C86.1646 45.5633 86.4565 45.6797 86.7993 45.6797C87.1675 45.6797 87.4764 45.54 87.7261 45.2607C87.98 44.9814 88.1069 44.6048 88.1069 44.1309C88.1069 43.6823 87.9863 43.3268 87.7451 43.0645C87.5039 42.8021 87.2098 42.6709 86.8628 42.6709C86.6343 42.6709 86.3613 42.7153 86.0439 42.8042L86.2407 41.3506C86.7231 41.3633 87.0913 41.2596 87.3452 41.0396C87.5991 40.8153 87.7261 40.519 87.7261 40.1509C87.7261 39.8377 87.633 39.5881 87.4468 39.4019C87.2606 39.2157 87.013 39.1226 86.7041 39.1226C86.3994 39.1226 86.1392 39.2284 85.9233 39.4399C85.7075 39.6515 85.5763 39.9604 85.5298 40.3667L83.8857 40.0874C84 39.5246 84.1714 39.076 84.3999 38.7417C84.6326 38.4032 84.9543 38.1387 85.3647 37.9482C85.7795 37.7536 86.2428 37.6562 86.7549 37.6562C87.6309 37.6562 88.3333 37.9355 88.8623 38.4941C89.2982 38.9512 89.5161 39.4674 89.5161 40.043C89.5161 40.8597 89.0697 41.5114 88.1768 41.998C88.71 42.1123 89.1353 42.3683 89.4526 42.7661C89.7743 43.1639 89.9351 43.6442 89.9351 44.207C89.9351 45.0238 89.6367 45.7199 89.04 46.2954C88.4434 46.8709 87.7007 47.1587 86.812 47.1587C85.9699 47.1587 85.2716 46.9175 84.7173 46.4351C84.1629 45.9484 83.8413 45.3136 83.7524 44.5308ZM94.0674 37.6562C94.9688 37.6562 95.6733 37.9779 96.1812 38.6211C96.7863 39.3828 97.0889 40.646 97.0889 42.4106C97.0889 44.1711 96.7842 45.4364 96.1748 46.2065C95.6712 46.8413 94.9688 47.1587 94.0674 47.1587C93.1618 47.1587 92.4318 46.8117 91.8774 46.1177C91.3231 45.4194 91.0459 44.1774 91.0459 42.3916C91.0459 40.6396 91.3506 39.3786 91.96 38.6084C92.4635 37.9736 93.166 37.6562 94.0674 37.6562ZM94.0674 39.1353C93.8516 39.1353 93.659 39.2051 93.4897 39.3447C93.3205 39.4801 93.1893 39.7256 93.0962 40.0811C92.9735 40.5423 92.9121 41.3188 92.9121 42.4106C92.9121 43.5024 92.9671 44.2536 93.0771 44.6641C93.1872 45.0703 93.3247 45.3411 93.4897 45.4766C93.659 45.612 93.8516 45.6797 94.0674 45.6797C94.2832 45.6797 94.4757 45.612 94.645 45.4766C94.8143 45.3369 94.9455 45.0894 95.0386 44.7339C95.1613 44.2769 95.2227 43.5024 95.2227 42.4106C95.2227 41.3188 95.1676 40.5698 95.0576 40.1636C94.9476 39.7531 94.8079 39.4801 94.6387 39.3447C94.4736 39.2051 94.2832 39.1353 94.0674 39.1353Z" fill="#2C2276"/>
<path d="M89.8398 81.3433V83H83.5874C83.6551 82.3737 83.8582 81.7812 84.1968 81.2227C84.5353 80.6598 85.2039 79.915 86.2026 78.9883C87.0067 78.2393 87.4997 77.7314 87.6816 77.4648C87.9271 77.0967 88.0498 76.7327 88.0498 76.373C88.0498 75.9753 87.9419 75.6706 87.7261 75.459C87.5145 75.2432 87.2204 75.1353 86.8438 75.1353C86.4714 75.1353 86.1751 75.2474 85.9551 75.4717C85.735 75.696 85.6081 76.0684 85.5742 76.5889L83.7969 76.4111C83.9027 75.4294 84.2349 74.7248 84.7935 74.2974C85.3521 73.87 86.0503 73.6562 86.8882 73.6562C87.8065 73.6562 88.528 73.9038 89.0527 74.3989C89.5775 74.894 89.8398 75.5098 89.8398 76.2461C89.8398 76.665 89.7637 77.0649 89.6113 77.4458C89.4632 77.8224 89.2262 78.2181 88.9004 78.6328C88.6846 78.9079 88.2952 79.3035 87.7324 79.8198C87.1696 80.3361 86.812 80.6789 86.6597 80.8481C86.5116 81.0174 86.391 81.1825 86.2979 81.3433H89.8398ZM91.0776 80.6069L92.855 80.4229C92.9058 80.8249 93.056 81.1444 93.3057 81.3813C93.5553 81.6141 93.8431 81.7305 94.1689 81.7305C94.5413 81.7305 94.8566 81.5802 95.1147 81.2798C95.3729 80.9751 95.502 80.5181 95.502 79.9087C95.502 79.3374 95.3729 78.91 95.1147 78.6265C94.8608 78.3387 94.5286 78.1948 94.1182 78.1948C93.6061 78.1948 93.147 78.4212 92.7407 78.874L91.2935 78.6646L92.2075 73.8213H96.9238V75.4907H93.5596L93.2803 77.0713C93.6781 76.8724 94.0843 76.7729 94.499 76.7729C95.2904 76.7729 95.9611 77.0607 96.5112 77.6362C97.0614 78.2118 97.3364 78.9587 97.3364 79.877C97.3364 80.6429 97.1143 81.3263 96.6699 81.9272C96.0648 82.7482 95.2248 83.1587 94.1499 83.1587C93.2909 83.1587 92.5905 82.9281 92.0488 82.4668C91.5072 82.0055 91.1834 81.3856 91.0776 80.6069Z" fill="#2C2276"/>
<path d="M89.8398 116.343V118H83.5874C83.6551 117.374 83.8582 116.781 84.1968 116.223C84.5353 115.66 85.2039 114.915 86.2026 113.988C87.0067 113.239 87.4997 112.731 87.6816 112.465C87.9271 112.097 88.0498 111.733 88.0498 111.373C88.0498 110.975 87.9419 110.671 87.7261 110.459C87.5145 110.243 87.2204 110.135 86.8438 110.135C86.4714 110.135 86.1751 110.247 85.9551 110.472C85.735 110.696 85.6081 111.068 85.5742 111.589L83.7969 111.411C83.9027 110.429 84.2349 109.725 84.7935 109.297C85.3521 108.87 86.0503 108.656 86.8882 108.656C87.8065 108.656 88.528 108.904 89.0527 109.399C89.5775 109.894 89.8398 110.51 89.8398 111.246C89.8398 111.665 89.7637 112.065 89.6113 112.446C89.4632 112.822 89.2262 113.218 88.9004 113.633C88.6846 113.908 88.2952 114.304 87.7324 114.82C87.1696 115.336 86.812 115.679 86.6597 115.848C86.5116 116.017 86.391 116.182 86.2979 116.343H89.8398ZM94.0674 108.656C94.9688 108.656 95.6733 108.978 96.1812 109.621C96.7863 110.383 97.0889 111.646 97.0889 113.411C97.0889 115.171 96.7842 116.436 96.1748 117.207C95.6712 117.841 94.9688 118.159 94.0674 118.159C93.1618 118.159 92.4318 117.812 91.8774 117.118C91.3231 116.419 91.0459 115.177 91.0459 113.392C91.0459 111.64 91.3506 110.379 91.96 109.608C92.4635 108.974 93.166 108.656 94.0674 108.656ZM94.0674 110.135C93.8516 110.135 93.659 110.205 93.4897 110.345C93.3205 110.48 93.1893 110.726 93.0962 111.081C92.9735 111.542 92.9121 112.319 92.9121 113.411C92.9121 114.502 92.9671 115.254 93.0771 115.664C93.1872 116.07 93.3247 116.341 93.4897 116.477C93.659 116.612 93.8516 116.68 94.0674 116.68C94.2832 116.68 94.4757 116.612 94.645 116.477C94.8143 116.337 94.9455 116.089 95.0386 115.734C95.1613 115.277 95.2227 114.502 95.2227 113.411C95.2227 112.319 95.1676 111.57 95.0576 111.164C94.9476 110.753 94.8079 110.48 94.6387 110.345C94.4736 110.205 94.2832 110.135 94.0674 110.135Z" fill="#2C2276"/>
<path d="M88.3799 154H86.5962V147.278C85.9445 147.887 85.1764 148.338 84.292 148.63V147.011C84.7575 146.859 85.2632 146.571 85.8091 146.148C86.355 145.721 86.7295 145.223 86.9326 144.656H88.3799V154ZM91.0776 151.607L92.855 151.423C92.9058 151.825 93.056 152.144 93.3057 152.381C93.5553 152.614 93.8431 152.73 94.1689 152.73C94.5413 152.73 94.8566 152.58 95.1147 152.28C95.3729 151.975 95.502 151.518 95.502 150.909C95.502 150.337 95.3729 149.91 95.1147 149.626C94.8608 149.339 94.5286 149.195 94.1182 149.195C93.6061 149.195 93.147 149.421 92.7407 149.874L91.2935 149.665L92.2075 144.821H96.9238V146.491H93.5596L93.2803 148.071C93.6781 147.872 94.0843 147.773 94.499 147.773C95.2904 147.773 95.9611 148.061 96.5112 148.636C97.0614 149.212 97.3364 149.959 97.3364 150.877C97.3364 151.643 97.1143 152.326 96.6699 152.927C96.0648 153.748 95.2248 154.159 94.1499 154.159C93.2909 154.159 92.5905 153.928 92.0488 153.467C91.5072 153.006 91.1834 152.386 91.0776 151.607Z" fill="#2C2276"/>
<path d="M88.3799 189H86.5962V182.278C85.9445 182.887 85.1764 183.338 84.292 183.63V182.011C84.7575 181.859 85.2632 181.571 85.8091 181.148C86.355 180.721 86.7295 180.223 86.9326 179.656H88.3799V189ZM94.0674 179.656C94.9688 179.656 95.6733 179.978 96.1812 180.621C96.7863 181.383 97.0889 182.646 97.0889 184.411C97.0889 186.171 96.7842 187.436 96.1748 188.207C95.6712 188.841 94.9688 189.159 94.0674 189.159C93.1618 189.159 92.4318 188.812 91.8774 188.118C91.3231 187.419 91.0459 186.177 91.0459 184.392C91.0459 182.64 91.3506 181.379 91.96 180.608C92.4635 179.974 93.166 179.656 94.0674 179.656ZM94.0674 181.135C93.8516 181.135 93.659 181.205 93.4897 181.345C93.3205 181.48 93.1893 181.726 93.0962 182.081C92.9735 182.542 92.9121 183.319 92.9121 184.411C92.9121 185.502 92.9671 186.254 93.0771 186.664C93.1872 187.07 93.3247 187.341 93.4897 187.477C93.659 187.612 93.8516 187.68 94.0674 187.68C94.2832 187.68 94.4757 187.612 94.645 187.477C94.8143 187.337 94.9455 187.089 95.0386 186.734C95.1613 186.277 95.2227 185.502 95.2227 184.411C95.2227 183.319 95.1676 182.57 95.0576 182.164C94.9476 181.753 94.8079 181.48 94.6387 181.345C94.4736 181.205 94.2832 181.135 94.0674 181.135Z" fill="#2C2276"/>
<path d="M102 43H108L107.5 79M107.5 79H103.5M107.5 79V114M107.5 114H103.5M107.5 114V150M107.5 150H103.5M107.5 150V185.5H103.5H220H545" stroke="#2C2276" stroke-width="2" stroke-linecap="round" stroke-linejoin="round"/>
<rect x="181.832" y="71.437" width="292.47" height="3" transform="rotate(11.5014 181.832 71.437)" fill="url(#paint0_linear_143_343)"/>
<rect x="181.508" y="100.174" width="288.977" height="3" transform="rotate(7.78332 181.508 100.174)" fill="#07B2B5"/>
<circle cx="470" cy="131" r="4" fill="url(#paint1_linear_143_343)"/>
<circle cx="181" cy="72" r="4" fill="url(#paint2_linear_143_343)"/>
<rect x="467" y="138" width="6" height="6" rx="1" fill="#02B2B3"/>
<rect x="178" y="98" width="6" height="6" rx="1" fill="#02B2B3"/>
<path d="M463.732 101V93.8418H466.418C466.965 93.8418 467.403 93.915 467.731 94.0615C468.063 94.2048 468.322 94.4277 468.508 94.7305C468.697 95.0299 468.791 95.3441 468.791 95.6729C468.791 95.9788 468.708 96.2669 468.542 96.5371C468.376 96.8073 468.125 97.0254 467.79 97.1914C468.223 97.3184 468.555 97.5348 468.786 97.8408C469.021 98.1468 469.138 98.5081 469.138 98.9248C469.138 99.2601 469.066 99.5726 468.923 99.8623C468.783 100.149 468.609 100.37 468.4 100.526C468.192 100.683 467.93 100.801 467.614 100.883C467.302 100.961 466.918 101 466.462 101H463.732ZM464.68 96.8496H466.228C466.647 96.8496 466.949 96.8219 467.131 96.7666C467.372 96.695 467.552 96.5762 467.673 96.4102C467.797 96.2441 467.858 96.0358 467.858 95.7852C467.858 95.5475 467.801 95.3392 467.688 95.1602C467.574 94.9779 467.411 94.8542 467.199 94.7891C466.988 94.7207 466.625 94.6865 466.11 94.6865H464.68V96.8496ZM464.68 100.155H466.462C466.768 100.155 466.983 100.144 467.106 100.121C467.325 100.082 467.507 100.017 467.653 99.9258C467.8 99.8346 467.92 99.7028 468.015 99.5303C468.109 99.3545 468.156 99.1527 468.156 98.9248C468.156 98.6579 468.088 98.4268 467.951 98.2314C467.814 98.0329 467.624 97.8945 467.38 97.8164C467.139 97.735 466.791 97.6943 466.335 97.6943H464.68V100.155ZM475.266 95.8145H476.145V101H475.266V95.8145ZM470.349 95.8145H471.228V97.8408H472.341C473.067 97.8408 473.625 97.9824 474.016 98.2656C474.41 98.5456 474.606 98.9329 474.606 99.4277C474.606 99.8607 474.442 100.232 474.113 100.541C473.788 100.847 473.265 101 472.546 101H470.349V95.8145ZM471.228 100.277H472.15C472.707 100.277 473.104 100.209 473.342 100.072C473.579 99.9355 473.698 99.7223 473.698 99.4326C473.698 99.208 473.61 99.0078 473.435 98.832C473.259 98.6562 472.87 98.5684 472.268 98.5684H471.228V100.277ZM480.9 99.1006L481.765 99.2129C481.67 99.8086 481.428 100.276 481.037 100.614C480.65 100.95 480.173 101.117 479.606 101.117C478.897 101.117 478.326 100.886 477.893 100.424C477.463 99.9583 477.248 99.2926 477.248 98.4268C477.248 97.8669 477.341 97.377 477.526 96.957C477.712 96.5371 477.993 96.223 478.371 96.0146C478.752 95.8031 479.165 95.6973 479.611 95.6973C480.174 95.6973 480.635 95.8405 480.993 96.127C481.351 96.4102 481.581 96.8138 481.682 97.3379L480.827 97.4697C480.746 97.1214 480.601 96.8594 480.393 96.6836C480.188 96.5078 479.938 96.4199 479.646 96.4199C479.203 96.4199 478.843 96.5794 478.566 96.8984C478.29 97.2142 478.151 97.7155 478.151 98.4023C478.151 99.099 478.285 99.6051 478.552 99.9209C478.819 100.237 479.167 100.395 479.597 100.395C479.942 100.395 480.23 100.289 480.461 100.077C480.692 99.8656 480.839 99.54 480.9 99.1006ZM482.307 98.4072C482.307 97.4469 482.574 96.7357 483.107 96.2734C483.553 95.8893 484.097 95.6973 484.738 95.6973C485.451 95.6973 486.034 95.9316 486.486 96.4004C486.939 96.8659 487.165 97.5104 487.165 98.334C487.165 99.0013 487.064 99.527 486.862 99.9111C486.664 100.292 486.372 100.588 485.988 100.8C485.607 101.011 485.191 101.117 484.738 101.117C484.012 101.117 483.425 100.884 482.976 100.419C482.53 99.9535 482.307 99.2829 482.307 98.4072ZM483.21 98.4072C483.21 99.0713 483.355 99.5693 483.645 99.9014C483.934 100.23 484.299 100.395 484.738 100.395C485.174 100.395 485.537 100.229 485.827 99.8965C486.117 99.5645 486.262 99.0583 486.262 98.3779C486.262 97.7367 486.115 97.2516 485.822 96.9229C485.533 96.5908 485.171 96.4248 484.738 96.4248C484.299 96.4248 483.934 96.5892 483.645 96.918C483.355 97.2467 483.21 97.7432 483.21 98.4072ZM488.195 95.8145H489.074V98.0557C489.354 98.0557 489.549 98.002 489.66 97.8945C489.774 97.7871 489.94 97.4746 490.158 96.957C490.331 96.5469 490.471 96.2767 490.578 96.1465C490.686 96.0163 490.809 95.9284 490.949 95.8828C491.089 95.8372 491.314 95.8145 491.623 95.8145H491.799V96.542L491.555 96.5371C491.324 96.5371 491.175 96.5713 491.11 96.6396C491.042 96.7113 490.938 96.9245 490.798 97.2793C490.664 97.6178 490.542 97.8522 490.432 97.9824C490.321 98.1126 490.15 98.2314 489.919 98.3389C490.297 98.4398 490.668 98.7913 491.032 99.3936L491.994 101H491.027L490.09 99.3936C489.898 99.0713 489.73 98.8597 489.587 98.7588C489.444 98.6546 489.273 98.6025 489.074 98.6025V101H488.195V95.8145ZM492.575 95.8145H493.454V99.7695L495.891 95.8145H496.838V101H495.959V97.0693L493.522 101H492.575V95.8145ZM498.161 95.8145H499.04V99.7695L501.477 95.8145H502.424V101H501.545V97.0693L499.108 101H498.161V95.8145ZM501.213 93.8516H501.813C501.765 94.2585 501.615 94.571 501.364 94.7891C501.117 95.0072 500.786 95.1162 500.373 95.1162C499.956 95.1162 499.623 95.0088 499.372 94.7939C499.125 94.5758 498.977 94.2617 498.928 93.8516H499.528C499.574 94.0729 499.663 94.2389 499.797 94.3496C499.934 94.457 500.116 94.5107 500.344 94.5107C500.607 94.5107 500.806 94.4587 500.939 94.3545C501.076 94.2471 501.167 94.0794 501.213 93.8516ZM463.332 111.407C463.332 110.447 463.599 109.736 464.133 109.273C464.579 108.889 465.122 108.697 465.764 108.697C466.477 108.697 467.059 108.932 467.512 109.4C467.964 109.866 468.19 110.51 468.19 111.334C468.19 112.001 468.09 112.527 467.888 112.911C467.689 113.292 467.398 113.588 467.014 113.8C466.633 114.011 466.216 114.117 465.764 114.117C465.038 114.117 464.45 113.884 464.001 113.419C463.555 112.953 463.332 112.283 463.332 111.407ZM464.235 111.407C464.235 112.071 464.38 112.569 464.67 112.901C464.96 113.23 465.324 113.395 465.764 113.395C466.2 113.395 466.563 113.229 466.853 112.896C467.142 112.564 467.287 112.058 467.287 111.378C467.287 110.737 467.141 110.252 466.848 109.923C466.558 109.591 466.197 109.425 465.764 109.425C465.324 109.425 464.96 109.589 464.67 109.918C464.38 110.247 464.235 110.743 464.235 111.407ZM472.243 106.842H473.122V109.317C473.304 109.109 473.505 108.954 473.723 108.854C473.941 108.749 474.175 108.697 474.426 108.697C475.041 108.697 475.528 108.954 475.886 109.469C476.247 109.98 476.428 110.624 476.428 111.402C476.428 112.213 476.234 112.869 475.847 113.37C475.459 113.868 474.978 114.117 474.401 114.117C474.213 114.117 474.021 114.088 473.825 114.029C473.63 113.971 473.396 113.811 473.122 113.551V115.987H472.243V113.551C472.067 113.74 471.872 113.881 471.657 113.976C471.446 114.07 471.216 114.117 470.969 114.117C470.425 114.117 469.95 113.88 469.543 113.404C469.136 112.926 468.933 112.242 468.933 111.354C468.933 110.602 469.117 109.972 469.484 109.464C469.852 108.953 470.347 108.697 470.969 108.697C471.229 108.697 471.465 108.749 471.677 108.854C471.888 108.954 472.077 109.109 472.243 109.317V106.842ZM473.117 111.427C473.117 112.208 473.225 112.734 473.439 113.004C473.654 113.271 473.923 113.404 474.245 113.404C474.603 113.404 474.908 113.24 475.158 112.911C475.412 112.579 475.539 112.065 475.539 111.368C475.539 110.711 475.422 110.221 475.188 109.898C474.956 109.576 474.659 109.415 474.294 109.415C473.903 109.415 473.609 109.583 473.41 109.918C473.215 110.253 473.117 110.756 473.117 111.427ZM469.826 111.329C469.826 112.062 469.948 112.589 470.192 112.911C470.44 113.233 470.746 113.395 471.11 113.395C471.491 113.395 471.776 113.235 471.965 112.916C472.154 112.594 472.248 112.112 472.248 111.471C472.248 110.787 472.149 110.274 471.95 109.933C471.752 109.591 471.452 109.42 471.052 109.42C470.69 109.42 470.396 109.588 470.168 109.923C469.94 110.255 469.826 110.724 469.826 111.329ZM476.76 108.814H480.974V109.542H479.304V114H478.43V109.542H476.76V108.814ZM485.08 113.36C484.755 113.637 484.44 113.832 484.138 113.946C483.838 114.06 483.516 114.117 483.171 114.117C482.601 114.117 482.163 113.979 481.857 113.702C481.551 113.422 481.398 113.066 481.398 112.633C481.398 112.379 481.455 112.148 481.569 111.939C481.687 111.728 481.838 111.559 482.023 111.432C482.212 111.305 482.424 111.209 482.658 111.144C482.831 111.098 483.091 111.054 483.439 111.012C484.149 110.927 484.672 110.826 485.007 110.709C485.01 110.589 485.012 110.512 485.012 110.479C485.012 110.121 484.929 109.869 484.763 109.723C484.538 109.524 484.204 109.425 483.762 109.425C483.348 109.425 483.042 109.498 482.844 109.645C482.648 109.788 482.504 110.043 482.409 110.411L481.55 110.294C481.628 109.926 481.757 109.63 481.936 109.405C482.115 109.177 482.373 109.003 482.712 108.883C483.05 108.759 483.443 108.697 483.889 108.697C484.331 108.697 484.691 108.749 484.968 108.854C485.244 108.958 485.448 109.09 485.578 109.249C485.708 109.405 485.799 109.604 485.852 109.845C485.881 109.994 485.896 110.265 485.896 110.655V111.827C485.896 112.644 485.913 113.162 485.949 113.38C485.988 113.595 486.063 113.801 486.174 114H485.256C485.165 113.818 485.106 113.604 485.08 113.36ZM485.007 111.397C484.688 111.528 484.209 111.638 483.571 111.729C483.21 111.782 482.954 111.84 482.805 111.905C482.655 111.97 482.539 112.066 482.458 112.193C482.377 112.317 482.336 112.455 482.336 112.608C482.336 112.843 482.424 113.038 482.6 113.194C482.779 113.351 483.039 113.429 483.381 113.429C483.719 113.429 484.021 113.355 484.284 113.209C484.548 113.059 484.742 112.856 484.865 112.599C484.96 112.4 485.007 112.107 485.007 111.72V111.397ZM487.692 108.814H491.774V114H490.9V109.542H488.571V112.125C488.571 112.727 488.552 113.124 488.513 113.316C488.474 113.508 488.366 113.676 488.19 113.819C488.015 113.963 487.761 114.034 487.429 114.034C487.224 114.034 486.988 114.021 486.721 113.995V113.263H487.106C487.289 113.263 487.419 113.245 487.497 113.209C487.575 113.17 487.627 113.11 487.653 113.028C487.679 112.947 487.692 112.682 487.692 112.232V108.814ZM493.088 108.814H493.967V110.841H495.08C495.806 110.841 496.364 110.982 496.755 111.266C497.149 111.546 497.346 111.933 497.346 112.428C497.346 112.861 497.181 113.232 496.853 113.541C496.527 113.847 496.005 114 495.285 114H493.088V108.814ZM493.967 113.277H494.89C495.446 113.277 495.843 113.209 496.081 113.072C496.319 112.936 496.438 112.722 496.438 112.433C496.438 112.208 496.35 112.008 496.174 111.832C495.998 111.656 495.609 111.568 495.007 111.568H493.967V113.277ZM498.342 108.814H499.709L501.071 112.965L502.585 108.814H503.85V114H502.971V109.825L501.438 114H500.651L499.201 109.625V114H498.342V108.814ZM504.865 111.407C504.865 110.447 505.132 109.736 505.666 109.273C506.112 108.889 506.656 108.697 507.297 108.697C508.01 108.697 508.592 108.932 509.045 109.4C509.497 109.866 509.724 110.51 509.724 111.334C509.724 112.001 509.623 112.527 509.421 112.911C509.222 113.292 508.931 113.588 508.547 113.8C508.166 114.011 507.749 114.117 507.297 114.117C506.571 114.117 505.983 113.884 505.534 113.419C505.088 112.953 504.865 112.283 504.865 111.407ZM505.769 111.407C505.769 112.071 505.913 112.569 506.203 112.901C506.493 113.23 506.857 113.395 507.297 113.395C507.733 113.395 508.096 113.229 508.386 112.896C508.675 112.564 508.82 112.058 508.82 111.378C508.82 110.737 508.674 110.252 508.381 109.923C508.091 109.591 507.73 109.425 507.297 109.425C506.857 109.425 506.493 109.589 506.203 109.918C505.913 110.247 505.769 110.743 505.769 111.407ZM510.061 108.814H514.274V109.542H512.604V114H511.73V109.542H510.061V108.814ZM514.67 111.407C514.67 110.447 514.937 109.736 515.471 109.273C515.917 108.889 516.46 108.697 517.102 108.697C517.814 108.697 518.397 108.932 518.85 109.4C519.302 109.866 519.528 110.51 519.528 111.334C519.528 112.001 519.427 112.527 519.226 112.911C519.027 113.292 518.736 113.588 518.352 113.8C517.971 114.011 517.554 114.117 517.102 114.117C516.376 114.117 515.788 113.884 515.339 113.419C514.893 112.953 514.67 112.283 514.67 111.407ZM515.573 111.407C515.573 112.071 515.718 112.569 516.008 112.901C516.298 113.23 516.662 113.395 517.102 113.395C517.538 113.395 517.901 113.229 518.19 112.896C518.48 112.564 518.625 112.058 518.625 111.378C518.625 110.737 518.479 110.252 518.186 109.923C517.896 109.591 517.535 109.425 517.102 109.425C516.662 109.425 516.298 109.589 516.008 109.918C515.718 110.247 515.573 110.743 515.573 111.407ZM520.568 108.814H521.447V110.973H523.884V108.814H524.763V114H523.884V111.7H521.447V114H520.568V108.814ZM526.052 115.997L525.954 115.172C526.146 115.224 526.314 115.25 526.457 115.25C526.652 115.25 526.809 115.217 526.926 115.152C527.043 115.087 527.139 114.996 527.214 114.879C527.269 114.791 527.359 114.573 527.482 114.225C527.499 114.176 527.525 114.104 527.561 114.01L525.593 108.814H526.54L527.619 111.817C527.759 112.198 527.884 112.599 527.995 113.019C528.096 112.615 528.216 112.221 528.356 111.837L529.465 108.814H530.344L528.371 114.088C528.16 114.658 527.995 115.05 527.878 115.265C527.722 115.554 527.543 115.766 527.341 115.899C527.139 116.036 526.898 116.104 526.618 116.104C526.449 116.104 526.26 116.069 526.052 115.997ZM534.357 112.101L535.222 112.213C535.127 112.809 534.885 113.276 534.494 113.614C534.107 113.95 533.63 114.117 533.063 114.117C532.354 114.117 531.783 113.886 531.35 113.424C530.92 112.958 530.705 112.293 530.705 111.427C530.705 110.867 530.798 110.377 530.983 109.957C531.169 109.537 531.451 109.223 531.828 109.015C532.209 108.803 532.622 108.697 533.068 108.697C533.632 108.697 534.092 108.84 534.45 109.127C534.808 109.41 535.038 109.814 535.139 110.338L534.284 110.47C534.203 110.121 534.058 109.859 533.85 109.684C533.645 109.508 533.396 109.42 533.103 109.42C532.66 109.42 532.3 109.579 532.023 109.898C531.747 110.214 531.608 110.715 531.608 111.402C531.608 112.099 531.742 112.605 532.009 112.921C532.276 113.237 532.624 113.395 533.054 113.395C533.399 113.395 533.687 113.289 533.918 113.077C534.149 112.866 534.296 112.54 534.357 112.101Z" fill="#616365"/>
<path d="M463.049 155.842H464.006L466.34 160.227L468.381 155.842H469.323L466.638 161.408C466.302 162.105 466.027 162.561 465.812 162.775C465.598 162.99 465.29 163.098 464.89 163.098C464.646 163.098 464.346 163.041 463.991 162.927V162.116C464.245 162.263 464.514 162.336 464.797 162.336C465.028 162.336 465.227 162.263 465.393 162.116C465.562 161.966 465.747 161.628 465.949 161.101L463.049 155.842ZM469.592 157.814H470.959L472.321 161.965L473.835 157.814H475.1V163H474.221V158.825L472.688 163H471.901L470.451 158.625V163H469.592V157.814ZM479.992 161.33L480.9 161.442C480.757 161.973 480.492 162.385 480.104 162.678C479.717 162.971 479.222 163.117 478.62 163.117C477.862 163.117 477.259 162.884 476.813 162.419C476.371 161.95 476.149 161.294 476.149 160.451C476.149 159.579 476.374 158.902 476.823 158.42C477.272 157.938 477.855 157.697 478.571 157.697C479.265 157.697 479.831 157.933 480.271 158.405C480.71 158.877 480.93 159.541 480.93 160.397C480.93 160.45 480.928 160.528 480.925 160.632H477.058C477.09 161.201 477.251 161.638 477.541 161.94C477.831 162.243 478.192 162.395 478.625 162.395C478.947 162.395 479.222 162.31 479.45 162.141C479.678 161.971 479.859 161.701 479.992 161.33ZM477.106 159.909H480.002C479.963 159.473 479.852 159.146 479.67 158.928C479.39 158.589 479.027 158.42 478.581 158.42C478.177 158.42 477.837 158.555 477.561 158.825C477.287 159.095 477.136 159.457 477.106 159.909ZM482.009 164.987V157.814H482.81V158.488C482.998 158.225 483.212 158.028 483.449 157.897C483.687 157.764 483.975 157.697 484.313 157.697C484.756 157.697 485.147 157.811 485.485 158.039C485.824 158.267 486.079 158.589 486.252 159.006C486.424 159.419 486.511 159.873 486.511 160.368C486.511 160.899 486.415 161.377 486.223 161.804C486.034 162.227 485.757 162.552 485.393 162.78C485.031 163.005 484.65 163.117 484.25 163.117C483.957 163.117 483.693 163.055 483.459 162.932C483.228 162.808 483.037 162.652 482.888 162.463V164.987H482.009ZM482.805 160.437C482.805 161.104 482.94 161.597 483.21 161.916C483.48 162.235 483.807 162.395 484.191 162.395C484.582 162.395 484.916 162.23 485.192 161.901C485.472 161.569 485.612 161.057 485.612 160.363C485.612 159.702 485.476 159.208 485.202 158.879C484.932 158.55 484.608 158.386 484.23 158.386C483.856 158.386 483.524 158.562 483.234 158.913C482.948 159.261 482.805 159.769 482.805 160.437ZM491.125 161.33L492.033 161.442C491.89 161.973 491.625 162.385 491.237 162.678C490.85 162.971 490.355 163.117 489.753 163.117C488.994 163.117 488.392 162.884 487.946 162.419C487.504 161.95 487.282 161.294 487.282 160.451C487.282 159.579 487.507 158.902 487.956 158.42C488.405 157.938 488.988 157.697 489.704 157.697C490.397 157.697 490.964 157.933 491.403 158.405C491.843 158.877 492.062 159.541 492.062 160.397C492.062 160.45 492.061 160.528 492.058 160.632H488.19C488.223 161.201 488.384 161.638 488.674 161.94C488.964 162.243 489.325 162.395 489.758 162.395C490.08 162.395 490.355 162.31 490.583 162.141C490.811 161.971 490.992 161.701 491.125 161.33ZM488.239 159.909H491.135C491.096 159.473 490.985 159.146 490.803 158.928C490.523 158.589 490.16 158.42 489.714 158.42C489.31 158.42 488.97 158.555 488.693 158.825C488.42 159.095 488.269 159.457 488.239 159.909ZM493.146 157.814H494.025V159.973H496.462V157.814H497.341V163H496.462V160.7H494.025V163H493.146V157.814ZM498.674 157.814H499.553V159.973H501.989V157.814H502.868V163H501.989V160.7H499.553V163H498.674V157.814ZM503.869 160.407C503.869 159.447 504.136 158.736 504.67 158.273C505.116 157.889 505.66 157.697 506.301 157.697C507.014 157.697 507.596 157.932 508.049 158.4C508.501 158.866 508.728 159.51 508.728 160.334C508.728 161.001 508.627 161.527 508.425 161.911C508.226 162.292 507.935 162.588 507.551 162.8C507.17 163.011 506.753 163.117 506.301 163.117C505.575 163.117 504.987 162.884 504.538 162.419C504.092 161.953 503.869 161.283 503.869 160.407ZM504.772 160.407C504.772 161.071 504.917 161.569 505.207 161.901C505.497 162.23 505.861 162.395 506.301 162.395C506.737 162.395 507.1 162.229 507.39 161.896C507.679 161.564 507.824 161.058 507.824 160.378C507.824 159.737 507.678 159.252 507.385 158.923C507.095 158.591 506.734 158.425 506.301 158.425C505.861 158.425 505.497 158.589 505.207 158.918C504.917 159.247 504.772 159.743 504.772 160.407ZM512.551 157.814H516.643V163H515.764V158.542H513.43V163H512.551V157.814ZM517.639 160.407C517.639 159.447 517.906 158.736 518.439 158.273C518.885 157.889 519.429 157.697 520.07 157.697C520.783 157.697 521.366 157.932 521.818 158.4C522.271 158.866 522.497 159.51 522.497 160.334C522.497 161.001 522.396 161.527 522.194 161.911C521.996 162.292 521.704 162.588 521.32 162.8C520.939 163.011 520.523 163.117 520.07 163.117C519.344 163.117 518.757 162.884 518.308 162.419C517.862 161.953 517.639 161.283 517.639 160.407ZM518.542 160.407C518.542 161.071 518.687 161.569 518.977 161.901C519.266 162.23 519.631 162.395 520.07 162.395C520.507 162.395 520.869 162.229 521.159 161.896C521.449 161.564 521.594 161.058 521.594 160.378C521.594 159.737 521.447 159.252 521.154 158.923C520.865 158.591 520.503 158.425 520.07 158.425C519.631 158.425 519.266 158.589 518.977 158.918C518.687 159.247 518.542 159.743 518.542 160.407ZM523.537 157.814H525.563C526.062 157.814 526.431 157.857 526.672 157.941C526.916 158.023 527.124 158.174 527.297 158.396C527.473 158.617 527.561 158.882 527.561 159.191C527.561 159.439 527.508 159.655 527.404 159.841C527.303 160.023 527.15 160.176 526.945 160.3C527.189 160.381 527.391 160.534 527.551 160.759C527.714 160.98 527.795 161.244 527.795 161.55C527.762 162.041 527.587 162.406 527.268 162.644C526.949 162.881 526.485 163 525.876 163H523.537V157.814ZM524.416 159.997H525.354C525.728 159.997 525.985 159.978 526.125 159.938C526.265 159.899 526.39 159.821 526.501 159.704C526.612 159.584 526.667 159.44 526.667 159.274C526.667 159.001 526.569 158.811 526.374 158.703C526.182 158.596 525.852 158.542 525.383 158.542H524.416V159.997ZM524.416 162.277H525.573C526.071 162.277 526.413 162.22 526.599 162.106C526.784 161.989 526.882 161.789 526.892 161.506C526.892 161.34 526.838 161.187 526.73 161.047C526.623 160.904 526.483 160.814 526.311 160.778C526.138 160.739 525.861 160.72 525.48 160.72H524.416V162.277ZM533.781 157.814H534.66V163H533.781V157.814ZM528.864 157.814H529.743V159.841H530.856C531.582 159.841 532.141 159.982 532.531 160.266C532.925 160.546 533.122 160.933 533.122 161.428C533.122 161.861 532.958 162.232 532.629 162.541C532.303 162.847 531.781 163 531.062 163H528.864V157.814ZM529.743 162.277H530.666C531.223 162.277 531.62 162.209 531.857 162.072C532.095 161.936 532.214 161.722 532.214 161.433C532.214 161.208 532.126 161.008 531.95 160.832C531.774 160.656 531.385 160.568 530.783 160.568H529.743V162.277ZM536.062 157.814H536.94V162.272H538.942V157.814H539.821V162.272H541.828V157.814H542.702V163H536.062V157.814ZM547.609 161.33L548.518 161.442C548.374 161.973 548.109 162.385 547.722 162.678C547.334 162.971 546.84 163.117 546.237 163.117C545.479 163.117 544.877 162.884 544.431 162.419C543.988 161.95 543.767 161.294 543.767 160.451C543.767 159.579 543.991 158.902 544.44 158.42C544.89 157.938 545.472 157.697 546.188 157.697C546.882 157.697 547.448 157.933 547.888 158.405C548.327 158.877 548.547 159.541 548.547 160.397C548.547 160.45 548.545 160.528 548.542 160.632H544.675C544.707 161.201 544.868 161.638 545.158 161.94C545.448 162.243 545.809 162.395 546.242 162.395C546.564 162.395 546.84 162.31 547.067 162.141C547.295 161.971 547.476 161.701 547.609 161.33ZM544.724 159.909H547.619C547.58 159.473 547.469 159.146 547.287 158.928C547.007 158.589 546.644 158.42 546.198 158.42C545.795 158.42 545.454 158.555 545.178 158.825C544.904 159.095 544.753 159.457 544.724 159.909ZM549.631 157.814H550.51V159.973H552.946V157.814H553.825V163H552.946V160.7H550.51V163H549.631V157.814ZM555.158 157.814H556.037V159.973H558.474V157.814H559.353V163H558.474V160.7H556.037V163H555.158V157.814ZM565.617 157.814H566.496V163H565.617V157.814ZM560.7 157.814H561.579V159.841H562.692C563.418 159.841 563.977 159.982 564.367 160.266C564.761 160.546 564.958 160.933 564.958 161.428C564.958 161.861 564.794 162.232 564.465 162.541C564.139 162.847 563.617 163 562.897 163H560.7V157.814ZM561.579 162.277H562.502C563.059 162.277 563.456 162.209 563.693 162.072C563.931 161.936 564.05 161.722 564.05 161.433C564.05 161.208 563.962 161.008 563.786 160.832C563.61 160.656 563.221 160.568 562.619 160.568H561.579V162.277ZM567.868 157.814H568.747V161.77L571.184 157.814H572.131V163H571.252V159.069L568.815 163H567.868V157.814ZM570.92 155.852H571.521C571.472 156.258 571.322 156.571 571.071 156.789C570.824 157.007 570.493 157.116 570.08 157.116C569.663 157.116 569.33 157.009 569.079 156.794C568.832 156.576 568.684 156.262 568.635 155.852H569.235C569.281 156.073 569.37 156.239 569.504 156.35C569.641 156.457 569.823 156.511 570.051 156.511C570.314 156.511 570.513 156.459 570.646 156.354C570.783 156.247 570.874 156.079 570.92 155.852ZM463.332 173.407C463.332 172.447 463.599 171.736 464.133 171.273C464.579 170.889 465.122 170.697 465.764 170.697C466.477 170.697 467.059 170.932 467.512 171.4C467.964 171.866 468.19 172.51 468.19 173.334C468.19 174.001 468.09 174.527 467.888 174.911C467.689 175.292 467.398 175.588 467.014 175.8C466.633 176.011 466.216 176.117 465.764 176.117C465.038 176.117 464.45 175.884 464.001 175.419C463.555 174.953 463.332 174.283 463.332 173.407ZM464.235 173.407C464.235 174.071 464.38 174.569 464.67 174.901C464.96 175.23 465.324 175.395 465.764 175.395C466.2 175.395 466.563 175.229 466.853 174.896C467.142 174.564 467.287 174.058 467.287 173.378C467.287 172.737 467.141 172.252 466.848 171.923C466.558 171.591 466.197 171.425 465.764 171.425C465.324 171.425 464.96 171.589 464.67 171.918C464.38 172.247 464.235 172.743 464.235 173.407ZM472.243 168.842H473.122V171.317C473.304 171.109 473.505 170.954 473.723 170.854C473.941 170.749 474.175 170.697 474.426 170.697C475.041 170.697 475.528 170.954 475.886 171.469C476.247 171.98 476.428 172.624 476.428 173.402C476.428 174.213 476.234 174.869 475.847 175.37C475.459 175.868 474.978 176.117 474.401 176.117C474.213 176.117 474.021 176.088 473.825 176.029C473.63 175.971 473.396 175.811 473.122 175.551V177.987H472.243V175.551C472.067 175.74 471.872 175.881 471.657 175.976C471.446 176.07 471.216 176.117 470.969 176.117C470.425 176.117 469.95 175.88 469.543 175.404C469.136 174.926 468.933 174.242 468.933 173.354C468.933 172.602 469.117 171.972 469.484 171.464C469.852 170.953 470.347 170.697 470.969 170.697C471.229 170.697 471.465 170.749 471.677 170.854C471.888 170.954 472.077 171.109 472.243 171.317V168.842ZM473.117 173.427C473.117 174.208 473.225 174.734 473.439 175.004C473.654 175.271 473.923 175.404 474.245 175.404C474.603 175.404 474.908 175.24 475.158 174.911C475.412 174.579 475.539 174.065 475.539 173.368C475.539 172.711 475.422 172.221 475.188 171.898C474.956 171.576 474.659 171.415 474.294 171.415C473.903 171.415 473.609 171.583 473.41 171.918C473.215 172.253 473.117 172.756 473.117 173.427ZM469.826 173.329C469.826 174.062 469.948 174.589 470.192 174.911C470.44 175.233 470.746 175.395 471.11 175.395C471.491 175.395 471.776 175.235 471.965 174.916C472.154 174.594 472.248 174.112 472.248 173.471C472.248 172.787 472.149 172.274 471.95 171.933C471.752 171.591 471.452 171.42 471.052 171.42C470.69 171.42 470.396 171.588 470.168 171.923C469.94 172.255 469.826 172.724 469.826 173.329ZM476.76 170.814H480.974V171.542H479.304V176H478.43V171.542H476.76V170.814ZM485.08 175.36C484.755 175.637 484.44 175.832 484.138 175.946C483.838 176.06 483.516 176.117 483.171 176.117C482.601 176.117 482.163 175.979 481.857 175.702C481.551 175.422 481.398 175.066 481.398 174.633C481.398 174.379 481.455 174.148 481.569 173.939C481.687 173.728 481.838 173.559 482.023 173.432C482.212 173.305 482.424 173.209 482.658 173.144C482.831 173.098 483.091 173.054 483.439 173.012C484.149 172.927 484.672 172.826 485.007 172.709C485.01 172.589 485.012 172.512 485.012 172.479C485.012 172.121 484.929 171.869 484.763 171.723C484.538 171.524 484.204 171.425 483.762 171.425C483.348 171.425 483.042 171.498 482.844 171.645C482.648 171.788 482.504 172.043 482.409 172.411L481.55 172.294C481.628 171.926 481.757 171.63 481.936 171.405C482.115 171.177 482.373 171.003 482.712 170.883C483.05 170.759 483.443 170.697 483.889 170.697C484.331 170.697 484.691 170.749 484.968 170.854C485.244 170.958 485.448 171.09 485.578 171.249C485.708 171.405 485.799 171.604 485.852 171.845C485.881 171.994 485.896 172.265 485.896 172.655V173.827C485.896 174.644 485.913 175.162 485.949 175.38C485.988 175.595 486.063 175.801 486.174 176H485.256C485.165 175.818 485.106 175.604 485.08 175.36ZM485.007 173.397C484.688 173.528 484.209 173.638 483.571 173.729C483.21 173.782 482.954 173.84 482.805 173.905C482.655 173.97 482.539 174.066 482.458 174.193C482.377 174.317 482.336 174.455 482.336 174.608C482.336 174.843 482.424 175.038 482.6 175.194C482.779 175.351 483.039 175.429 483.381 175.429C483.719 175.429 484.021 175.355 484.284 175.209C484.548 175.059 484.742 174.856 484.865 174.599C484.96 174.4 485.007 174.107 485.007 173.72V173.397ZM487.692 170.814H491.774V176H490.9V171.542H488.571V174.125C488.571 174.727 488.552 175.124 488.513 175.316C488.474 175.508 488.366 175.676 488.19 175.819C488.015 175.963 487.761 176.034 487.429 176.034C487.224 176.034 486.988 176.021 486.721 175.995V175.263H487.106C487.289 175.263 487.419 175.245 487.497 175.209C487.575 175.17 487.627 175.11 487.653 175.028C487.679 174.947 487.692 174.682 487.692 174.232V170.814ZM493.088 170.814H493.967V172.841H495.08C495.806 172.841 496.364 172.982 496.755 173.266C497.149 173.546 497.346 173.933 497.346 174.428C497.346 174.861 497.181 175.232 496.853 175.541C496.527 175.847 496.005 176 495.285 176H493.088V170.814ZM493.967 175.277H494.89C495.446 175.277 495.843 175.209 496.081 175.072C496.319 174.936 496.438 174.722 496.438 174.433C496.438 174.208 496.35 174.008 496.174 173.832C495.998 173.656 495.609 173.568 495.007 173.568H493.967V175.277ZM498.342 170.814H499.709L501.071 174.965L502.585 170.814H503.85V176H502.971V171.825L501.438 176H500.651L499.201 171.625V176H498.342V170.814ZM504.865 173.407C504.865 172.447 505.132 171.736 505.666 171.273C506.112 170.889 506.656 170.697 507.297 170.697C508.01 170.697 508.592 170.932 509.045 171.4C509.497 171.866 509.724 172.51 509.724 173.334C509.724 174.001 509.623 174.527 509.421 174.911C509.222 175.292 508.931 175.588 508.547 175.8C508.166 176.011 507.749 176.117 507.297 176.117C506.571 176.117 505.983 175.884 505.534 175.419C505.088 174.953 504.865 174.283 504.865 173.407ZM505.769 173.407C505.769 174.071 505.913 174.569 506.203 174.901C506.493 175.23 506.857 175.395 507.297 175.395C507.733 175.395 508.096 175.229 508.386 174.896C508.675 174.564 508.82 174.058 508.82 173.378C508.82 172.737 508.674 172.252 508.381 171.923C508.091 171.591 507.73 171.425 507.297 171.425C506.857 171.425 506.493 171.589 506.203 171.918C505.913 172.247 505.769 172.743 505.769 173.407ZM510.061 170.814H514.274V171.542H512.604V176H511.73V171.542H510.061V170.814ZM514.67 173.407C514.67 172.447 514.937 171.736 515.471 171.273C515.917 170.889 516.46 170.697 517.102 170.697C517.814 170.697 518.397 170.932 518.85 171.4C519.302 171.866 519.528 172.51 519.528 173.334C519.528 174.001 519.427 174.527 519.226 174.911C519.027 175.292 518.736 175.588 518.352 175.8C517.971 176.011 517.554 176.117 517.102 176.117C516.376 176.117 515.788 175.884 515.339 175.419C514.893 174.953 514.67 174.283 514.67 173.407ZM515.573 173.407C515.573 174.071 515.718 174.569 516.008 174.901C516.298 175.23 516.662 175.395 517.102 175.395C517.538 175.395 517.901 175.229 518.19 174.896C518.48 174.564 518.625 174.058 518.625 173.378C518.625 172.737 518.479 172.252 518.186 171.923C517.896 171.591 517.535 171.425 517.102 171.425C516.662 171.425 516.298 171.589 516.008 171.918C515.718 172.247 515.573 172.743 515.573 173.407ZM520.568 170.814H521.447V172.973H523.884V170.814H524.763V176H523.884V173.7H521.447V176H520.568V170.814ZM526.052 177.997L525.954 177.172C526.146 177.224 526.314 177.25 526.457 177.25C526.652 177.25 526.809 177.217 526.926 177.152C527.043 177.087 527.139 176.996 527.214 176.879C527.269 176.791 527.359 176.573 527.482 176.225C527.499 176.176 527.525 176.104 527.561 176.01L525.593 170.814H526.54L527.619 173.817C527.759 174.198 527.884 174.599 527.995 175.019C528.096 174.615 528.216 174.221 528.356 173.837L529.465 170.814H530.344L528.371 176.088C528.16 176.658 527.995 177.05 527.878 177.265C527.722 177.554 527.543 177.766 527.341 177.899C527.139 178.036 526.898 178.104 526.618 178.104C526.449 178.104 526.26 178.069 526.052 177.997ZM534.357 174.101L535.222 174.213C535.127 174.809 534.885 175.276 534.494 175.614C534.107 175.95 533.63 176.117 533.063 176.117C532.354 176.117 531.783 175.886 531.35 175.424C530.92 174.958 530.705 174.293 530.705 173.427C530.705 172.867 530.798 172.377 530.983 171.957C531.169 171.537 531.451 171.223 531.828 171.015C532.209 170.803 532.622 170.697 533.068 170.697C533.632 170.697 534.092 170.84 534.45 171.127C534.808 171.41 535.038 171.814 535.139 172.338L534.284 172.47C534.203 172.121 534.058 171.859 533.85 171.684C533.645 171.508 533.396 171.42 533.103 171.42C532.66 171.42 532.3 171.579 532.023 171.898C531.747 172.214 531.608 172.715 531.608 173.402C531.608 174.099 531.742 174.605 532.009 174.921C532.276 175.237 532.624 175.395 533.054 175.395C533.399 175.395 533.687 175.289 533.918 175.077C534.149 174.866 534.296 174.54 534.357 174.101Z" fill="#616365"/>
<rect x="0.75" y="0.75" width="645.5" height="257.5" rx="26.25" stroke="#00C8C8" stroke-width="1.5"/>
<rect x="109" y="241" width="6" height="6" rx="3" fill="#00C8C8"/>
<rect x="358" y="241" width="6" height="6" rx="3" fill="#FCDF8B"/>
<path d="M126 245C126.552 245 127 244.552 127 244C127 243.448 126.552 243 126 243V245ZM113 245H126V243H113V245Z" fill="#00C8C8"/>
<path d="M375 245C375.552 245 376 244.552 376 244C376 243.448 375.552 243 375 243V245ZM362 245H375V243H362V245Z" fill="#FCDF8B"/>
<defs>
<linearGradient id="paint0_linear_143_343" x1="98.2979" y1="51.5318" x2="508.37" y2="77.04" gradientUnits="userSpaceOnUse">
<stop stop-color="#CE924E"/>
<stop offset="1" stop-color="#FBDD89"/>
</linearGradient>
<linearGradient id="paint1_linear_143_343" x1="471.474" y1="127" x2="458.333" y2="142.333" gradientUnits="userSpaceOnUse">
<stop stop-color="#FDE28D"/>
<stop offset="1" stop-color="#CB8C4A"/>
<stop offset="1" stop-color="#CB8C4A"/>
</linearGradient>
<linearGradient id="paint2_linear_143_343" x1="182.474" y1="68" x2="169.333" y2="83.3333" gradientUnits="userSpaceOnUse">
<stop stop-color="#FDE28D"/>
<stop offset="1" stop-color="#CB8C4A"/>
<stop offset="1" stop-color="#CB8C4A"/>
</linearGradient>
</defs>
</svg>
