<svg width="264" height="225" viewBox="0 0 264 225" fill="none" xmlns="http://www.w3.org/2000/svg">
<g filter="url(#filter0_d_174_251)">
<path d="M116.069 150C113.756 150 111.837 148.911 110.522 146.841C108.708 143.992 108.514 140.096 108.326 136.327C108.16 133.007 107.989 129.572 106.714 126.863C104.683 122.548 100.89 121.57 96.8751 120.533C93.2536 119.599 89.5087 118.632 87.1146 115.003C82.9893 108.75 85.4072 98.4903 90.0124 92.5549C92.1334 89.8331 94.6322 87.6847 97.0541 85.6088C99.7968 83.2499 102.634 80.8238 104.885 77.5613C106.194 75.6615 107.194 73.5584 108.16 71.5225C109.573 68.5466 111.034 65.4709 113.472 63.0467C117.76 58.7843 123.377 56.4363 129.285 56.4363C133.209 56.4363 137.06 57.4905 140.42 59.4847C143.931 61.5678 146.538 65.6923 149.061 69.6807C151.965 74.2733 154.708 78.6101 158.727 80.1942C159.787 80.6069 160.885 80.8139 161.987 80.8093C166.056 80.8093 170.143 78.1492 174.096 75.578C175.157 74.8848 176.262 74.1681 177.334 73.5257C180.074 71.8817 183.121 70.9763 185.914 70.9763C190.432 70.9763 193.735 73.3552 195.219 77.6738C197.303 83.7416 194.821 90.0418 192.415 96.1332C191.567 98.2835 190.692 100.508 190.037 102.666C188.499 107.77 188.12 113.42 187.754 118.886C187.622 120.862 187.489 122.903 187.296 124.894C186.377 134.535 183.938 141.225 180.046 144.787C177.877 146.77 175.303 147.777 172.394 147.777C168.242 147.777 163.342 145.765 157.415 141.624C152.145 137.944 146.172 133.774 140.398 133.774C138.601 133.759 136.818 134.206 135.142 135.092C132.367 136.58 130.053 139.336 127.814 142C126.519 143.542 125.178 145.135 123.753 146.487C121.434 148.688 118.562 150 116.069 150ZM129.284 56.9951C123.46 56.9951 117.93 59.3051 113.71 63.4985C111.334 65.8574 109.958 68.7607 108.501 71.8255C107.524 73.8814 106.512 75.999 105.18 77.9423C102.893 81.2575 100.035 83.709 97.2702 86.0806C94.8655 88.1419 92.3787 90.2759 90.2921 92.9614C85.8076 98.7317 83.5832 108.815 87.4169 114.627C89.7195 118.118 93.3954 119.066 96.9507 119.984C100.875 120.996 104.931 122.043 107.057 126.56C108.389 129.39 108.564 132.898 108.733 136.289C108.924 140.134 109.105 143.765 110.829 146.473C112.064 148.414 113.878 149.439 116.067 149.439C118.48 149.439 121.265 148.169 123.516 146.032C124.924 144.698 126.255 143.114 127.541 141.582C129.806 138.886 132.149 136.099 134.988 134.576C136.712 133.665 138.545 133.205 140.393 133.221C146.265 133.221 152.285 137.423 157.595 141.132C163.466 145.231 168.307 147.226 172.393 147.226C175.219 147.226 177.717 146.251 179.816 144.322C183.606 140.856 185.986 134.295 186.887 124.821C187.075 122.842 187.212 120.804 187.345 118.833C187.713 113.328 188.094 107.634 189.656 102.451C190.319 100.261 191.198 98.024 192.052 95.861C194.406 89.8912 196.84 83.7199 194.845 77.897C193.434 73.7852 190.261 71.5225 185.91 71.5225C183.173 71.5225 180.184 72.4116 177.494 74.0265C176.433 74.6671 175.329 75.3802 174.267 76.0715C170.275 78.67 166.145 81.3555 161.983 81.3573C160.843 81.3619 159.707 81.1475 158.611 80.7204C154.473 79.0873 151.564 74.4893 148.748 70.0363C146.256 66.0951 143.679 62.0197 140.253 59.9874C136.947 58.0331 133.152 56.9951 129.284 56.9951Z" fill="#00D4D3"/>
</g>
<g filter="url(#filter1_d_174_251)">
<path d="M75.6541 217C70.3191 217 65.8953 214.489 62.8625 209.713C58.6771 203.142 58.2307 194.155 57.7965 185.462C57.4144 177.802 57.02 169.879 54.0789 163.63C49.3952 153.677 40.6482 151.421 31.3877 149.031C23.0352 146.875 14.3985 144.644 8.87701 136.273C-0.63725 121.85 4.93918 98.1844 15.5602 84.4934C20.4518 78.2151 26.2148 73.2593 31.8005 68.471C38.126 63.0298 44.6686 57.4337 49.8599 49.9081C52.8804 45.5258 55.1856 40.6747 57.4144 35.9785C60.6734 29.1142 64.0426 22.0196 69.6649 16.4277C79.5552 6.59583 92.5089 1.17969 106.135 1.17969C115.185 1.17969 124.066 3.61152 131.816 8.21146C139.912 13.0165 145.926 22.5302 151.744 31.7301C158.442 42.3238 164.768 52.3273 174.037 55.9813C176.483 56.9332 179.013 57.4108 181.555 57.4002C190.941 57.4002 200.367 51.2642 209.483 45.3332C211.929 43.7343 214.479 42.0811 216.949 40.5994C223.269 36.8072 230.297 34.7186 236.739 34.7186C247.158 34.7186 254.777 40.2059 258.198 50.1676C263.004 64.1641 257.281 78.6964 251.732 92.7473C249.775 97.7072 247.758 102.839 246.247 107.815C242.701 119.589 241.826 132.623 240.983 145.23C240.677 149.788 240.371 154.497 239.925 159.089C237.806 181.326 232.181 196.759 223.205 204.975C218.203 209.55 212.266 211.873 205.558 211.873C195.983 211.873 184.68 207.231 171.011 197.679C158.858 189.191 145.082 179.573 131.764 179.573C127.62 179.537 123.508 180.568 119.642 182.611C113.243 186.044 107.905 192.401 102.742 198.546C99.7547 202.104 96.6637 205.779 93.3771 208.897C88.0269 213.974 81.4048 217 75.6541 217ZM106.132 2.46881C92.7015 2.46881 79.9465 7.79707 70.2152 17.4699C64.7335 22.9111 61.5601 29.6081 58.2001 36.6775C55.9469 41.4197 53.6142 46.3043 50.5416 50.787C45.2678 58.434 38.6763 64.0887 32.2988 69.5593C26.7529 74.3141 21.0175 79.2363 16.2053 85.431C5.86252 98.7411 0.732421 122 9.57408 135.407C14.8846 143.46 23.3624 145.644 31.562 147.762C40.6116 150.098 49.9668 152.513 54.8707 162.931C57.9433 169.46 58.3469 177.551 58.7351 185.374C59.1754 194.243 59.5942 202.618 63.5687 208.863C66.418 213.342 70.6004 215.707 75.651 215.707C81.2153 215.707 87.6387 212.777 92.83 207.846C96.0768 204.77 99.1462 201.116 102.112 197.583C107.337 191.363 112.739 184.934 119.288 181.423C123.263 179.321 127.491 178.26 131.752 178.296C145.296 178.296 159.179 187.99 171.426 196.545C184.967 206 196.132 210.6 205.555 210.6C212.073 210.6 217.833 208.353 222.676 203.903C231.416 195.909 236.904 180.774 238.983 158.921C239.417 154.355 239.732 149.654 240.038 145.109C240.888 132.41 241.765 119.275 245.37 107.321C246.899 102.269 248.925 97.1087 250.894 92.1195C256.324 78.349 261.937 64.1139 257.336 50.6824C254.083 41.1979 246.764 35.9785 236.73 35.9785C230.417 35.9785 223.523 38.0294 217.319 41.7546C214.873 43.2321 212.327 44.877 209.878 46.4717C200.669 52.4654 191.146 58.66 181.546 58.6642C178.916 58.6748 176.298 58.1802 173.768 57.1951C164.227 53.4281 157.516 42.8219 151.022 32.5505C145.274 23.4595 139.331 14.0587 131.431 9.37086C123.806 4.86301 115.053 2.46881 106.132 2.46881Z" fill="#00D4D3"/>
</g>
<circle cx="142" cy="106" r="43" stroke="white" stroke-width="2"/>
<path d="M126.836 98.8516C125.64 97.656 124.969 96.0345 124.969 94.3438C124.969 92.653 125.64 91.0315 126.836 89.8359C128.031 88.6404 129.653 87.9688 131.344 87.9688C133.035 87.9688 134.656 88.6404 135.852 89.8359L158.164 112.148C159.36 113.344 160.031 114.965 160.031 116.656C160.031 118.347 159.36 119.969 158.164 121.164C156.969 122.36 155.347 123.031 153.656 123.031C151.965 123.031 150.344 122.36 149.148 121.164L126.836 98.8516Z" stroke="url(#paint0_linear_174_251)" stroke-width="2" stroke-linecap="round" stroke-linejoin="round"/>
<path d="M149.148 89.8359C150.344 88.6404 151.965 87.9688 153.656 87.9688C154.493 87.9688 155.322 88.1336 156.096 88.454C156.869 88.7744 157.572 89.244 158.164 89.8359C158.756 90.4279 159.226 91.1307 159.546 91.9041C159.866 92.6776 160.031 93.5066 160.031 94.3438C160.031 95.1809 159.866 96.0099 159.546 96.7834C159.226 97.5568 158.756 98.2596 158.164 98.8516L135.852 121.164C135.26 121.756 134.557 122.226 133.783 122.546C133.01 122.866 132.181 123.031 131.344 123.031C130.507 123.031 129.678 122.866 128.904 122.546C128.131 122.226 127.428 121.756 126.836 121.164C125.64 119.969 124.969 118.347 124.969 116.656C124.969 114.965 125.64 113.344 126.836 112.148L149.148 89.8359Z" stroke="url(#paint1_linear_174_251)" stroke-width="2" stroke-linecap="round" stroke-linejoin="round"/>
<path opacity="0.5" d="M142.5 106.297C142.94 106.297 143.297 105.94 143.297 105.5C143.297 105.06 142.94 104.703 142.5 104.703C142.06 104.703 141.703 105.06 141.703 105.5C141.703 105.94 142.06 106.297 142.5 106.297Z" stroke="url(#paint2_linear_174_251)" stroke-width="2" stroke-linecap="round" stroke-linejoin="round"/>
<path d="M142.5 107.891C143.82 107.891 144.891 106.82 144.891 105.5C144.891 104.18 143.82 103.109 142.5 103.109C141.18 103.109 140.109 104.18 140.109 105.5C140.109 106.82 141.18 107.891 142.5 107.891Z" fill="url(#paint3_linear_174_251)"/>
<defs>
<filter id="filter0_d_174_251" x="81" y="0" width="119" height="158" filterUnits="userSpaceOnUse" color-interpolation-filters="sRGB">
<feFlood flood-opacity="0" result="BackgroundImageFix"/>
<feColorMatrix in="SourceAlpha" type="matrix" values="0 0 0 0 0 0 0 0 0 0 0 0 0 0 0 0 0 0 127 0" result="hardAlpha"/>
<feOffset dy="4"/>
<feGaussianBlur stdDeviation="2"/>
<feComposite in2="hardAlpha" operator="out"/>
<feColorMatrix type="matrix" values="0 0 0 0 0 0 0 0 0 0 0 0 0 0 0 0 0 0 0.25 0"/>
<feBlend mode="normal" in2="BackgroundImageFix" result="effect1_dropShadow_174_251"/>
<feBlend mode="normal" in="SourceGraphic" in2="effect1_dropShadow_174_251" result="shape"/>
</filter>
<filter id="filter1_d_174_251" x="0" y="1.17969" width="264" height="223.82" filterUnits="userSpaceOnUse" color-interpolation-filters="sRGB">
<feFlood flood-opacity="0" result="BackgroundImageFix"/>
<feColorMatrix in="SourceAlpha" type="matrix" values="0 0 0 0 0 0 0 0 0 0 0 0 0 0 0 0 0 0 127 0" result="hardAlpha"/>
<feOffset dy="4"/>
<feGaussianBlur stdDeviation="2"/>
<feComposite in2="hardAlpha" operator="out"/>
<feColorMatrix type="matrix" values="0 0 0 0 0 0 0 0 0 0 0 0 0 0 0 0 0 0 0.25 0"/>
<feBlend mode="normal" in2="BackgroundImageFix" result="effect1_dropShadow_174_251"/>
<feBlend mode="normal" in="SourceGraphic" in2="effect1_dropShadow_174_251" result="shape"/>
</filter>
<linearGradient id="paint0_linear_174_251" x1="142.5" y1="87.9688" x2="142.5" y2="123.031" gradientUnits="userSpaceOnUse">
<stop stop-color="#FDAF55"/>
<stop offset="1" stop-color="#FDE08C"/>
</linearGradient>
<linearGradient id="paint1_linear_174_251" x1="142.5" y1="87.9688" x2="142.5" y2="123.031" gradientUnits="userSpaceOnUse">
<stop stop-color="#FDAF55"/>
<stop offset="1" stop-color="#FDE08C"/>
</linearGradient>
<linearGradient id="paint2_linear_174_251" x1="142.5" y1="104.703" x2="142.5" y2="106.297" gradientUnits="userSpaceOnUse">
<stop stop-color="#FDAF55"/>
<stop offset="1" stop-color="#FDE08C"/>
</linearGradient>
<linearGradient id="paint3_linear_174_251" x1="142.5" y1="103.109" x2="142.5" y2="107.891" gradientUnits="userSpaceOnUse">
<stop stop-color="#FDAF55"/>
<stop offset="1" stop-color="#FDE08C"/>
</linearGradient>
</defs>
</svg>
