<svg width="332" height="140" viewBox="0 0 332 140" fill="none" xmlns="http://www.w3.org/2000/svg">
<path d="M302 80.5C302 146.566 248.654 200 183 200C117.346 200 64 146.566 64 80.5C64 14.4342 117.346 -39 183 -39C248.654 -39 302 14.4342 302 80.5Z" stroke="white" stroke-opacity="0.17" stroke-width="40"/>
<path d="M202.713 8.78945C211.484 4.67545 222.81 7.325 228.954 14.9293C232.816 19.705 234.629 25.918 238.366 30.7968C242.904 36.7196 249.801 40.1095 255.81 44.4486C261.819 48.7877 267.473 55.1635 267.187 62.6837C266.922 69.6642 261.321 75.5925 254.837 77.7756C248.354 79.9587 241.232 79.0149 234.693 77.0216C214.201 70.7842 165.291 26.3438 202.713 8.78945Z" fill="url(#paint0_linear_157_385)"/>
<path d="M159.308 8.64535C141.297 15.4509 126.02 29.2018 117.372 46.3931C108.723 63.5844 106.756 84.0467 111.995 102.568C119.665 129.624 143.284 151.637 170.919 156.862C198.554 162.088 228.848 150.027 244.884 126.92C253.927 113.887 258.486 97.5745 256.379 81.8508C254.908 70.8952 250.091 60.3482 242.642 52.1558C234.985 43.7456 219.66 40.4288 214.936 30.0458C210.036 19.273 213.178 12.7792 199.613 7.46808C186.672 2.39885 172.096 3.81265 159.308 8.64535Z" fill="#2C2276"/>
<path d="M218.457 113.232C213.942 122.322 217.597 134.338 226.017 140.095C241.146 150.446 274.499 135.421 261.791 115.754C253.124 102.341 226.642 96.759 218.457 113.232Z" fill="url(#paint1_linear_157_385)"/>
<path d="M114.791 32.1278C112.834 37.6403 112.481 44.7441 116.903 48.4772C120.818 51.7743 126.646 50.8642 131.372 48.9867C139.327 45.8061 146.289 40.4651 151.509 33.5366C154.294 29.828 156.591 25.5635 157.106 20.9121C158.483 8.46481 147.682 4.5464 137.926 8.12691C127.46 11.9636 118.554 21.5307 114.791 32.1278Z" fill="url(#paint2_linear_157_385)"/>
<path d="M129.042 114.225C127.844 110.85 124.043 108.821 120.502 109.162C116.961 109.502 113.817 111.885 111.952 114.936C107.611 122.017 110.725 132.615 118.202 136.181C125.679 139.746 135.773 135.456 138.476 127.577C141.179 119.697 135.819 110.058 127.749 108.238" fill="url(#paint3_linear_157_385)"/>
<path d="M137.551 57.5484C136.318 57.5514 135.091 57.3683 133.91 57.0051C128.243 55.2583 124.248 48.8824 124.599 42.1723C124.905 36.4673 128.078 30.6782 133.306 26.2908C137.722 22.5853 147.25 16.7282 154.933 18.2848C158.279 18.9613 160.852 20.977 162.578 24.2615C164.728 28.3636 164.592 33.7833 162.209 38.7629C159.995 43.3812 156.282 47.035 152.94 49.9908C147.232 55.0491 142.156 57.5484 137.551 57.5484ZM133.944 27.0677C128.932 31.2785 125.889 36.7988 125.599 42.2212C125.261 48.4694 128.959 54.4134 134.197 56.0271C139.435 57.6408 145.314 55.405 152.286 49.2355C155.553 46.345 159.179 42.7917 161.312 38.3282C163.555 33.642 163.706 28.5673 161.698 24.745C160.12 21.7323 157.777 19.8931 154.736 19.2764C147.413 17.7931 138.211 23.4764 133.931 27.0705L133.944 27.0677Z" fill="white"/>
<path d="M103.011 104.802C95.6585 85.7056 96.3416 63.2229 104.835 44.6611L105.676 45.0877C97.2951 63.4046 96.6244 85.5898 103.879 104.433L103.011 104.802Z" fill="white"/>
<path d="M226.273 135.731C219.827 135.731 213.324 132.886 209.339 127.718C204.758 121.791 203.125 111.539 209.806 101.993C215.097 94.4362 223.52 91.1875 231.788 93.513C239.125 95.5762 244.377 102.416 245.5 111.365C246.677 120.763 243.025 129.337 236.191 133.204C233.17 134.886 229.749 135.758 226.273 135.731ZM210.144 127.114C215.88 134.534 227.568 136.924 235.672 132.337C242.148 128.668 245.606 120.482 244.478 111.485C243.637 104.795 239.788 96.8045 231.499 94.4737C222.135 91.8404 214.58 96.9223 210.639 102.558C204.247 111.691 205.782 121.473 210.144 127.114Z" fill="white"/>
<circle cx="183" cy="83" r="163" stroke="white" stroke-opacity="0.02" stroke-width="40"/>
<defs>
<linearGradient id="paint0_linear_157_385" x1="228.105" y1="6.8584" x2="241.852" y2="76.0204" gradientUnits="userSpaceOnUse">
<stop stop-color="#02BBB7"/>
<stop offset="1" stop-color="#005C92"/>
</linearGradient>
<linearGradient id="paint1_linear_157_385" x1="240.563" y1="103.084" x2="240.563" y2="143.464" gradientUnits="userSpaceOnUse">
<stop stop-color="#BFCFCC"/>
<stop offset="1" stop-color="#BFCFCC" stop-opacity="0"/>
</linearGradient>
<linearGradient id="paint2_linear_157_385" x1="135.317" y1="6.8584" x2="135.317" y2="50.6753" gradientUnits="userSpaceOnUse">
<stop stop-color="#A5B4B4"/>
<stop offset="1" stop-color="#A5B4B4" stop-opacity="0"/>
</linearGradient>
<linearGradient id="paint3_linear_157_385" x1="124.577" y1="108.238" x2="124.577" y2="137.45" gradientUnits="userSpaceOnUse">
<stop stop-color="white"/>
<stop offset="1" stop-color="white" stop-opacity="0"/>
</linearGradient>
</defs>
</svg>
