<svg width="119" height="102" viewBox="0 0 119 102" fill="none" xmlns="http://www.w3.org/2000/svg">
<path d="M61 74.75C74.669 74.75 85.75 63.669 85.75 50C85.75 36.331 74.669 25.25 61 25.25C47.331 25.25 36.25 36.331 36.25 50C36.25 63.669 47.331 74.75 61 74.75Z" stroke="url(#paint0_linear_169_145)" stroke-width="2" stroke-linecap="round" stroke-linejoin="round"/>
<path d="M61 60.3125C66.6954 60.3125 71.3125 55.6954 71.3125 50C71.3125 44.3046 66.6954 39.6875 61 39.6875C55.3046 39.6875 50.6875 44.3046 50.6875 50C50.6875 55.6954 55.3046 60.3125 61 60.3125Z" stroke="url(#paint1_linear_169_145)" stroke-width="2" stroke-linecap="round" stroke-linejoin="round"/>
<path d="M53.7079 57.292L43.4991 67.5008" stroke="url(#paint2_linear_169_145)" stroke-width="2" stroke-linecap="round" stroke-linejoin="round"/>
<g filter="url(#filter0_d_169_145)">
<path d="M35.0688 93.9998C32.7556 93.9998 30.8374 92.911 29.5224 90.8406C27.7076 87.9918 27.5141 84.0959 27.3258 80.3271C27.1601 77.0065 26.9891 73.5715 25.7139 70.8624C23.6831 66.5474 19.8904 65.5694 15.8751 64.5332C12.2536 63.5988 8.5087 62.6316 6.11464 59.0025C1.98932 52.7496 4.40722 42.4901 9.01242 36.5547C11.1334 33.8329 13.6322 31.6844 16.0541 29.6086C18.7968 27.2497 21.6336 24.8236 23.8845 21.5611C25.1943 19.6612 26.1938 17.5581 27.1601 15.5222C28.5733 12.5464 30.0341 9.4707 32.4719 7.04646C36.7603 2.78407 42.3769 0.436035 48.2852 0.436035C52.209 0.436035 56.0599 1.4903 59.4204 3.48449C62.9306 5.56759 65.5381 9.69206 68.0608 13.6804C70.9652 18.2731 73.7079 22.6099 77.7271 24.194C78.7874 24.6066 79.8846 24.8137 80.9868 24.8091C85.0565 24.8091 89.1434 22.149 93.0963 19.5777C94.1568 18.8846 95.2624 18.1678 96.3335 17.5255C99.0736 15.8815 102.121 14.976 104.914 14.976C109.432 14.976 112.735 17.3549 114.219 21.6735C116.303 27.7414 113.821 34.0415 111.415 40.133C110.567 42.2832 109.692 44.5079 109.037 46.6654C107.499 51.7697 107.12 57.4202 106.754 62.8857C106.622 64.8617 106.489 66.9031 106.296 68.8936C105.377 78.5343 102.938 85.2246 99.0457 88.7866C96.877 90.7699 94.3027 91.7769 91.3943 91.7769C87.2424 91.7769 82.3416 89.7646 76.4148 85.6238C71.1455 81.9439 65.1722 77.774 59.3978 77.774C57.601 77.7586 55.818 78.2055 54.1418 79.0914C51.3672 80.5793 49.0527 83.3357 46.8138 85.9994C45.5186 87.5418 44.1784 89.1349 42.7534 90.4868C40.4335 92.6878 37.5623 93.9998 35.0688 93.9998ZM48.2838 0.994904C42.4604 0.994904 36.9299 3.30484 32.7105 7.49827C30.3337 9.85719 28.9577 12.7605 27.5008 15.8253C26.5239 17.8811 25.5124 19.9987 24.1802 21.9421C21.8935 25.2573 19.0354 27.7087 16.2702 30.0804C13.8655 32.1417 11.3787 34.2756 9.29214 36.9612C4.80758 42.7314 2.5832 52.8149 6.41688 58.6269C8.71948 62.1181 12.3954 63.0653 15.9507 63.9834C19.8745 64.9959 23.9309 66.043 26.0572 70.5594C27.3895 73.3901 27.5645 76.8976 27.7328 80.289C27.9237 84.134 28.1053 87.765 29.8286 90.4723C31.0641 92.4138 32.8775 93.4391 35.0674 93.4391C37.4801 93.4391 40.2652 92.1689 42.5161 90.0313C43.9239 88.6976 45.2548 87.1135 46.5407 85.5821C48.8061 82.8856 51.1485 80.0985 53.988 78.5761C55.7116 77.6649 57.5449 77.2051 59.3925 77.2206C65.265 77.2206 71.2846 81.4231 76.5951 85.1321C82.4662 89.2311 87.3074 91.2253 91.3929 91.2253C94.2192 91.2253 96.7166 90.2509 98.8164 88.322C102.606 84.8562 104.986 78.2948 105.887 68.821C106.075 66.8414 106.212 64.8036 106.345 62.833C106.713 57.3277 107.094 51.6336 108.656 46.4512C109.319 44.2611 110.198 42.0237 111.052 39.8608C113.406 33.8909 115.84 27.7196 113.845 21.8967C112.434 17.785 109.261 15.5222 104.91 15.5222C102.173 15.5222 99.1836 16.4114 96.4939 18.0263C95.4334 18.6668 94.3292 19.3799 93.2673 20.0713C89.2746 22.6697 85.1453 25.3553 80.9829 25.3571C79.8425 25.3616 78.7073 25.1472 77.6105 24.7202C73.4733 23.0871 70.5635 18.489 67.7479 14.0361C65.2557 10.0949 62.6787 6.01942 59.2533 3.98712C55.9472 2.03285 52.152 0.994904 48.2838 0.994904Z" fill="#00D4D3"/>
</g>
<circle cx="61" cy="50" r="43" stroke="white" stroke-width="2"/>
<defs>
<filter id="filter0_d_169_145" x="0" y="0.436035" width="119" height="101.564" filterUnits="userSpaceOnUse" color-interpolation-filters="sRGB">
<feFlood flood-opacity="0" result="BackgroundImageFix"/>
<feColorMatrix in="SourceAlpha" type="matrix" values="0 0 0 0 0 0 0 0 0 0 0 0 0 0 0 0 0 0 127 0" result="hardAlpha"/>
<feOffset dy="4"/>
<feGaussianBlur stdDeviation="2"/>
<feComposite in2="hardAlpha" operator="out"/>
<feColorMatrix type="matrix" values="0 0 0 0 0 0 0 0 0 0 0 0 0 0 0 0 0 0 0.25 0"/>
<feBlend mode="normal" in2="BackgroundImageFix" result="effect1_dropShadow_169_145"/>
<feBlend mode="normal" in="SourceGraphic" in2="effect1_dropShadow_169_145" result="shape"/>
</filter>
<linearGradient id="paint0_linear_169_145" x1="61" y1="25.25" x2="61" y2="74.75" gradientUnits="userSpaceOnUse">
<stop stop-color="#FDE08C"/>
<stop offset="1" stop-color="#FDAC51"/>
</linearGradient>
<linearGradient id="paint1_linear_169_145" x1="61" y1="39.6875" x2="61" y2="60.3125" gradientUnits="userSpaceOnUse">
<stop stop-color="#FDE08C"/>
<stop offset="1" stop-color="#FDAC51"/>
</linearGradient>
<linearGradient id="paint2_linear_169_145" x1="48.6035" y1="57.292" x2="48.6035" y2="67.5008" gradientUnits="userSpaceOnUse">
<stop stop-color="#FDE08C"/>
<stop offset="1" stop-color="#FDAC51"/>
</linearGradient>
</defs>
</svg>
